<?xml version="1.0" encoding="UTF-8" standalone="no"?>
<!-- Created with Inkscape (http://www.inkscape.org/) -->

<svg
   version="1.1"
   id="svg186960"
   width="1500"
   height="967"
   viewBox="0 0 1500 967"
   sodipodi:docname="32esque-logo.svg"
   inkscape:version="1.1.2 (0a00cf5339, 2022-02-04)"
   xmlns:inkscape="http://www.inkscape.org/namespaces/inkscape"
   xmlns:sodipodi="http://sodipodi.sourceforge.net/DTD/sodipodi-0.dtd"
   xmlns="http://www.w3.org/2000/svg"
   xmlns:svg="http://www.w3.org/2000/svg">
  <defs
     id="defs186964" />
  <sodipodi:namedview
     id="namedview186962"
     pagecolor="#ffffff"
     bordercolor="#666666"
     borderopacity="1.0"
     inkscape:pageshadow="2"
     inkscape:pageopacity="0.0"
     inkscape:pagecheckerboard="0"
     showgrid="false"
     inkscape:snap-global="false"
     inkscape:zoom="0.67485495"
     inkscape:cx="808.32184"
     inkscape:cy="526.03896"
     inkscape:window-width="2240"
     inkscape:window-height="1782"
     inkscape:window-x="1499"
     inkscape:window-y="95"
     inkscape:window-maximized="0"
     inkscape:current-layer="g204094" />
  <g
     inkscape:groupmode="layer"
     inkscape:label="Image"
     id="g186966">
    <rect
       style="font-variation-settings:normal;opacity:1;vector-effect:none;fill:#9ae86a;fill-opacity:1;fill-rule:evenodd;stroke:none;stroke-width:0.999997;stroke-linecap:butt;stroke-linejoin:miter;stroke-miterlimit:4;stroke-dasharray:none;stroke-dashoffset:0;stroke-opacity:1;-inkscape-stroke:none;stop-color:#000000;stop-opacity:1"
       id="rect204760"
       width="1518.5894"
       height="976.02606"
       x="-10.366631"
       y="-2.4209485" />
    <rect
       style="font-variation-settings:normal;opacity:1;fill:#84f73c;fill-opacity:1;fill-rule:evenodd;stroke:none;stroke-width:1.04444;stroke-linecap:butt;stroke-linejoin:miter;stroke-miterlimit:4;stroke-dasharray:none;stroke-dashoffset:0;stroke-opacity:1;stop-color:#000000;stop-opacity:1"
       id="rect204370"
       width="150.97139"
       height="1090.3081"
       x="338.9137"
       y="-14.177119"
       transform="matrix(1,0,-0.3928694,0.91959428,0,0)" />
    <rect
       style="font-variation-settings:normal;opacity:1;fill:#84f73c;fill-opacity:1;fill-rule:evenodd;stroke:none;stroke-width:1.04444;stroke-linecap:butt;stroke-linejoin:miter;stroke-miterlimit:4;stroke-dasharray:none;stroke-dashoffset:0;stroke-opacity:1;stop-color:#000000;stop-opacity:1"
       id="rect214255"
       width="150.97139"
       height="1090.3081"
       x="643.45734"
       y="-14.177119"
       transform="matrix(1,0,-0.3928694,0.91959428,0,0)" />
    <rect
       style="font-variation-settings:normal;opacity:1;fill:#84f73c;fill-opacity:1;fill-rule:evenodd;stroke:none;stroke-width:1.04444;stroke-linecap:butt;stroke-linejoin:miter;stroke-miterlimit:4;stroke-dasharray:none;stroke-dashoffset:0;stroke-opacity:1;stop-color:#000000;stop-opacity:1"
       id="rect214257"
       width="150.97139"
       height="1090.3081"
       x="948.00098"
       y="-14.177119"
       transform="matrix(1,0,-0.3928694,0.91959428,0,0)" />
    <rect
       style="font-variation-settings:normal;opacity:1;fill:#84f73c;fill-opacity:1;fill-rule:evenodd;stroke:none;stroke-width:1.04444;stroke-linecap:butt;stroke-linejoin:miter;stroke-miterlimit:4;stroke-dasharray:none;stroke-dashoffset:0;stroke-opacity:1;stop-color:#000000;stop-opacity:1"
       id="rect214259"
       width="150.97139"
       height="1090.3081"
       x="1252.5447"
       y="-14.177119"
       transform="matrix(1,0,-0.3928694,0.91959428,0,0)" />
    <rect
       style="font-variation-settings:normal;opacity:1;fill:#84f73c;fill-opacity:1;fill-rule:evenodd;stroke:none;stroke-width:1.04444;stroke-linecap:butt;stroke-linejoin:miter;stroke-miterlimit:4;stroke-dasharray:none;stroke-dashoffset:0;stroke-opacity:1;stop-color:#000000;stop-opacity:1"
       id="rect214261"
       width="150.97139"
       height="1090.3081"
       x="1557.0883"
       y="-14.177119"
       transform="matrix(1,0,-0.3928694,0.91959428,0,0)" />
    <rect
       style="font-variation-settings:normal;opacity:1;fill:#84f73c;fill-opacity:1;fill-rule:evenodd;stroke:none;stroke-width:1.04444;stroke-linecap:butt;stroke-linejoin:miter;stroke-miterlimit:4;stroke-dasharray:none;stroke-dashoffset:0;stroke-opacity:1;stop-color:#000000;stop-opacity:1"
       id="rect214263"
       width="150.97139"
       height="1090.3081"
       x="34.370029"
       y="-14.177119"
       transform="matrix(1,0,-0.3928694,0.91959428,0,0)" />
    <g
       id="g204094">
      <path
         id="path204060"
         style="font-size:278.76px;line-height:0.55;font-family:Copperplate;-inkscape-font-specification:Copperplate;letter-spacing:0px;word-spacing:0px;fill:#000000;stroke:none;stroke-width:0.999997"
         d="m 1303.1201,469.82097 v 47.65588 h 111.4563 q 6.3575,0 9.4155,-1.49644 3.058,-1.554 4.4261,-5.8131 h 4.5869 v 27.33882 h -4.5869 q -1.3681,-4.25909 -4.4261,-5.81309 -3.058,-1.49645 -9.4155,-1.49645 h -144.692 v -3.28066 q 6.0355,-1.09355 8.1279,-3.2231 2.0923,-2.12954 2.0923,-6.67643 V 414.22245 q 0,-4.60443 -2.0923,-6.73398 -2.0924,-2.12955 -8.1279,-3.16555 v -3.10799 h 143.6459 q 6.3574,0 9.335,-1.55399 3.0579,-1.61156 4.5064,-5.69799 h 4.3457 v 27.33881 h -4.3457 q -1.3679,-4.31664 -4.426,-5.9282 -2.9775,-1.61155 -9.4154,-1.61155 h -110.4102 v 43.56943 h 70.2537 q 6.3574,0 9.335,-1.61154 3.058,-1.61156 4.5066,-5.92822 h 4.5869 v 27.33883 h -4.5869 q -1.4486,-4.14399 -4.5066,-5.69799 -2.9776,-1.61155 -9.335,-1.61155 z m -223.0715,-65.49805 v -3.10799 h 43.7778 v 3.10799 q -6.116,1.036 -8.3693,3.16555 -2.1728,2.12955 -2.1728,6.73398 v 66.47649 5.64043 q 0,18.24507 11.2663,24.97905 14.4853,8.28798 49.7329,8.28798 38.9493,0 52.3885,-10.12975 8.2888,-5.92821 8.2888,-21.46817 v -7.30954 -66.47649 q 0,-4.60443 -2.2533,-6.73398 -2.1728,-2.12955 -8.2888,-3.16555 v -3.10799 h 39.8345 v 3.10799 q -5.8745,1.036 -8.0473,3.16555 -2.1729,2.12955 -2.1729,6.73398 v 69.52693 q 0,14.3313 -3.4603,23.42505 -3.4603,9.0362 -15.9338,15.71263 -11.6687,6.15843 -27.2002,8.11531 -15.4509,2.01444 -35.1671,2.01444 -13.761,0 -25.1078,-0.86333 -11.3469,-0.80577 -22.3717,-3.56843 -10.9445,-2.82022 -19.0724,-8.05776 -9.9787,-6.67643 -12.7148,-15.19464 -2.7361,-8.51819 -2.7361,-21.58327 v -69.52693 q 0,-4.60443 -2.0924,-6.73398 -2.0923,-2.12955 -8.1278,-3.16555 z m -65.3697,122.82324 q -21.96958,5.64043 -47.80168,5.64043 -47.8014,0 -77.4159,-17.89973 -14.8875,-9.09376 -23.1764,-22.10128 -8.2084,-13.00753 -8.2084,-27.16616 0,-9.49664 3.6214,-18.41773 3.7018,-8.97864 10.703,-16.69105 7.0013,-7.76999 17.0604,-13.92842 29.0512,-17.95728 77.4159,-17.95728 48.04298,0 77.17458,17.95728 9.8982,6.04332 16.8994,13.87086 7.0818,7.76997 10.7031,16.74861 3.7018,8.92109 3.7018,18.41773 0,14.3313 -8.1278,27.22371 -8.128,12.83486 -23.1765,22.04373 -4.748,3.10798 -10.9445,5.64043 l 16.8191,9.20886 q 4.1846,1.89933 6.9208,1.89933 2.3337,0 6.5988,-3.79866 l 3.2994,1.89933 -24.0617,22.61928 -3.2994,-2.12956 q 2.3337,-3.10798 2.3337,-4.71954 0,-3.10799 -5.3112,-5.87065 z m -18.75054,-10.35997 q -9.09354,-4.89222 -15.20954,-7.42465 -6.0356,-2.53244 -12.8759,-2.53244 -5.8745,0 -11.8296,3.10799 l -2.9775,-2.58999 q 13.1977,-6.15843 27.683,-6.15843 14.32444,0 34.28188,9.66931 36.2937,-16.74863 36.2937,-45.23856 0,-16.11551 -11.5882,-28.37482 -11.5883,-12.25929 -30.9824,-18.70549 -19.39438,-6.44621 -41.84658,-6.44621 -22.6131,0 -42.0878,6.44621 -19.4747,6.4462 -31.063,18.70549 -11.5881,12.25931 -11.5881,28.37482 0,16.28819 11.5881,28.60504 11.5883,12.31686 30.9825,18.87818 19.4748,6.50376 42.1683,6.50376 12.3125,0 29.05114,-2.82021 z m -146.47264,-108.72216 -17.4628,24.97904 -3.9433,-1.1511 q 0.6437,-3.33822 0.6437,-4.94977 0,-2.07199 -3.0579,-3.51088 -3.0581,-1.49644 -7.1623,-2.87777 -21.8888,-8.46065 -52.7103,-8.46065 -23.096,0 -42.8926,5.8131 -19.7161,5.75554 -19.7161,19.8566 0,5.58288 4.3456,10.0722 4.4261,4.43177 12.1516,6.44621 8.6912,2.01443 22.0498,2.82022 7.8865,0.17266 17.2214,0.518 9.4155,0.34533 15.1291,0.46044 21.728,0.51799 34.4428,1.72666 12.7149,1.1511 23.4985,5.58287 10.1396,4.14399 15.2899,11.51108 5.1503,7.30955 5.1503,16.05797 0,13.81329 -12.8757,22.84949 -12.8759,8.97865 -32.1091,13.12264 -19.1528,4.08643 -37.7423,4.08643 -32.109,0 -60.9992,-8.23042 -14.0024,-4.02889 -24.3835,-8.0002 -2.2533,-1.20867 -3.6214,-1.20867 -2.2532,0 -5.8746,2.58999 l -1.6899,1.43889 -3.6213,-1.66911 20.4403,-24.5186 3.9432,1.43888 q -1.6094,1.15111 -1.6094,4.94977 0,1.20867 1.9313,2.7051 2.0119,1.43888 4.9894,2.82021 2.9776,1.38133 5.7137,2.41733 2.8166,1.036 3.7822,1.43889 27.683,10.41753 60.0335,10.41753 13.3587,0 27.5221,-2.47488 14.1634,-2.53244 24.1422,-8.46065 9.9787,-5.98576 9.9787,-15.71262 0,-5.35266 -4.3455,-9.84198 -4.2651,-4.54688 -11.1859,-6.4462 -6.8403,-1.61156 -14.2439,-2.30222 -7.4036,-0.69067 -19.0724,-0.92089 -11.5881,-0.28778 -12.1515,-0.28778 -23.5788,-0.80577 -34.5233,-1.55399 -10.8639,-0.74823 -24.0616,-3.91377 -13.1978,-3.2231 -21.4866,-10.24486 -8.2888,-7.02176 -8.2888,-18.93573 0,-13.81329 12.7954,-22.73438 12.7953,-8.97865 31.7872,-13.06508 18.9918,-4.08643 37.5008,-4.08643 36.6961,0 70.5756,10.87797 4.8283,1.38133 5.6331,1.38133 3.219,0 6.1965,-4.20154 z m -315.76053,61.75694 v 47.65588 h 111.45633 q 6.3574,0 9.4154,-1.49644 3.058,-1.554 4.4261,-5.8131 h 4.587 v 27.33882 h -4.587 q -1.3681,-4.25909 -4.4261,-5.81309 -3.058,-1.49645 -9.4154,-1.49645 H 500.45949 v -3.28066 q 6.03554,-1.09355 8.12786,-3.2231 2.09232,-2.12954 2.09232,-6.67643 V 414.22245 q 0,-4.60443 -2.09232,-6.73398 -2.09232,-2.12955 -8.12786,-3.16555 v -3.10799 h 143.64583 q 6.3575,0 9.335,-1.55399 3.058,-1.61156 4.5065,-5.69799 h 4.3456 v 27.33881 h -4.3456 q -1.368,-4.31664 -4.426,-5.9282 -2.9776,-1.61155 -9.4155,-1.61155 H 533.69519 v 43.56943 h 70.25369 q 6.35744,0 9.33497,-1.61154 3.05797,-1.61156 4.50657,-5.92822 h 4.587 v 27.33883 h -4.587 q -1.4486,-4.14399 -4.50657,-5.69799 -2.97753,-1.61155 -9.33497,-1.61155 z m -206.91316,-39.42515 -35.74206,-32.94047 3.62133,-2.59 c 3.70179,2.072 2.10131,1.75315 4.73012,1.75315 1.23393,0 2.89706,-0.70985 4.98939,-2.12956 10.83715,-8.47983 25.64285,-18.37357 40.66464,-23.01637 15.07543,-4.64281 35.13627,-6.68832 51.55294,-6.68832 23.28377,0 44.37003,6.15834 58.64073,14.48469 15.39733,8.71005 22.36384,21.50509 22.36384,34.62772 0,9.47745 -4.98051,19.29989 -11.7403,26.05305 -6.70616,6.7148 -14.64625,12.12501 -23.82027,16.23063 -9.12037,4.06725 -21.27367,9.79445 -37.2075,15.47325 -13.84151,4.71954 -23.71238,7.96775 -33.52417,11.51774 -8.66733,3.13593 -16.44784,7.18486 -24.4885,12.03015 -4.35335,2.62331 -9.25774,4.40596 -13.01319,11.61957 l 140.53163,-1.25549 c 4.23812,-0.0379 8.09118,-0.22198 10.12985,-1.2196 2.03867,-1.036 3.03074,-2.30865 3.94277,-5.14805 l 3.44916,0.10588 0.81469,38.76763 -4.15509,0.63044 c -0.91203,-2.83939 -1.07519,-3.48278 -3.11386,-4.51878 -2.03867,-0.99763 -5.1556,-0.7398 -9.39165,-0.60213 0,0 -109.87658,1.49786 -159.97262,1.48209 -4.23829,-10e-4 -8.00416,0.1914 -10.22507,0.24713 l -19.09228,0.4791 c 0.26825,-8.09613 -0.73451,-15.04711 2.64539,-21.60842 3.43355,-6.59969 7.98302,-16.27463 15.01107,-22.52899 6.33061,-5.71717 15.72143,-14.41266 24.09071,-19.09383 8.42294,-4.68117 22.43683,-9.95373 31.60792,-13.60624 9.2306,-3.67621 15.2771,-6.21239 26.57317,-10.42006 11.40088,-4.24671 16.86578,-6.89354 23.78374,-9.85457 6.97719,-2.98637 10.52346,-4.94826 15.01806,-8.52484 4.24242,-3.37591 8.57085,-8.70962 9.32336,-11.70134 0.80729,-3.20954 1.90551,-10.45793 -3.46035,-15.52867 -2.76966,-2.61732 -9.01876,-6.36715 -12.95133,-7.88661 -7.51483,-2.90357 -14.97894,-4.15357 -24.20661,-4.15357 -10.40796,0 -18.55564,1.07868 -27.94426,3.53437 -9.38862,2.4557 -17.44096,6.9304 -25.16644,11.76506 -9.22768,5.29509 -14.91276,12.2811 -14.91276,15.00539 0,1.61155 1.42171,3.81785 4.26512,6.61888 z m -215.95844,-7.11321 -30.754765,-31.34694 3.70179,-2.59 c 3.00436,1.88014 3.56043,1.65629 5.8137,1.65629 1.01933,0 2.17279,-0.28778 3.46037,-0.86333 1.341234,-0.57556 2.709294,-1.24704 4.104174,-2.01444 1.39488,-0.80578 2.60199,-1.49645 3.621331,-2.072 26.31161,-16.32411 55.27794,-22.04958 83.63731,-21.13368 12.92273,0.41736 26.20816,0.89829 36.72341,3.35399 10.51526,2.41733 19.79259,5.55501 26.76699,9.66063 7.02805,4.10561 12.72575,8.78699 16.32026,13.96698 3.59449,5.17998 6.95649,12.27573 6.95649,17.76268 0,14.8493 -6.97242,27.80277 -31.38283,33.98038 30.79467,5.56369 45.15492,21.04959 45.15492,41.92302 0,10.32161 -7.2326,22.75605 -16.62121,30.0464 -9.33497,7.25199 -22.0221,13.43954 -36.34645,17.04635 -14.32435,3.56843 -31.48019,4.00453 -45.6436,4.00453 -14.378,0 -30.19643,-0.29125 -42.10656,-2.2865 -11.85649,-1.99525 -25.5589,-5.44855 -38.16647,-9.78439 -2.84341,-1.11274 -6.545201,-2.49407 -11.105391,-4.14399 -4.506544,-1.64993 -11.103484,-3.91151 -11.961874,-3.91151 -1.55583,0 -3.28328,0.43398 -6.98507,2.81294 l -4.26513,-1.89933 23.995174,-39.39823 4.345591,1.61155 c -1.126631,1.80341 -0.510511,3.86659 -0.510511,5.70836 0.590141,2.34059 4.373251,5.47657 13.708211,9.88915 17.91885,8.17287 44.52465,16.11698 70.10886,15.54109 11.42305,-0.25713 20.16732,-0.44315 30.78912,-2.7663 8.99677,-1.96773 16.18557,-3.8346 21.71374,-8.74341 5.57723,-4.95236 6.77826,-6.73617 6.77826,-13.18238 0,-9.36235 -4.4544,-14.33039 -13.89667,-19.7406 -10.40795,-5.79391 -17.4144,-7.67218 -39.0887,-7.67218 H 169.2477 c -4.18464,0 -7.2963,0.518 -9.33497,1.554 -1.98502,1.036 -3.4872,2.95452 -4.50654,5.75554 h -5.2308 l -0.14219,-39.05623 h 5.2308 c 1.01933,2.91614 1.99593,3.6609 3.98096,4.73527 1.98501,1.036 5.10002,1.72257 9.33497,1.554 l 18.13935,-0.72201 c 9.59563,-0.38194 17.04883,-0.66066 22.58733,-2.24371 13.05506,-3.73148 20.36074,-10.46575 19.90196,-18.20337 -0.82374,-13.89298 -24.72004,-21.76287 -46.19461,-21.49746 -24.625,0 -40.94324,5.72995 -59.63645,14.75156 -2.62881,1.49644 -4.61383,2.64755 -5.95507,3.45332 -1.28758,0.76741 -2.60198,1.78422 -3.94321,3.05044 -1.34123,1.26622 -2.01185,2.49407 -2.01185,3.68355 0,1.03599 0.99252,2.83939 2.97754,5.4102 z" />
      <path
         id="path195297"
         style="font-size:278.76px;line-height:0.55;font-family:Copperplate;-inkscape-font-specification:Copperplate;letter-spacing:0px;word-spacing:0px;fill:#e93333;fill-opacity:1;stroke:none;stroke-width:0.999997"
         d="m 1309.0526,463.96161 v 47.65588 h 111.4563 q 6.3575,0 9.4155,-1.49644 3.058,-1.554 4.4261,-5.8131 h 4.5869 v 27.33882 h -4.5869 q -1.3681,-4.25909 -4.4261,-5.81309 -3.058,-1.49645 -9.4155,-1.49645 h -144.692 v -3.28066 q 6.0355,-1.09355 8.1279,-3.2231 2.0923,-2.12954 2.0923,-6.67643 V 408.36309 q 0,-4.60443 -2.0923,-6.73398 -2.0924,-2.12955 -8.1279,-3.16555 v -3.10799 h 143.6459 q 6.3574,0 9.335,-1.55399 3.0579,-1.61156 4.5064,-5.69799 h 4.3457 v 27.33881 h -4.3457 q -1.3679,-4.31664 -4.426,-5.9282 -2.9775,-1.61155 -9.4154,-1.61155 h -110.4102 v 43.56943 h 70.2537 q 6.3574,0 9.335,-1.61154 3.058,-1.61156 4.5066,-5.92822 h 4.5869 v 27.33883 h -4.5869 q -1.4486,-4.14399 -4.5066,-5.69799 -2.9776,-1.61155 -9.335,-1.61155 z m -223.0715,-65.49805 v -3.10799 h 43.7778 v 3.10799 q -6.116,1.036 -8.3693,3.16555 -2.1728,2.12955 -2.1728,6.73398 v 66.47649 5.64043 q 0,18.24507 11.2663,24.97905 14.4853,8.28798 49.7329,8.28798 38.9493,0 52.3885,-10.12975 8.2888,-5.92821 8.2888,-21.46817 v -7.30954 -66.47649 q 0,-4.60443 -2.2533,-6.73398 -2.1728,-2.12955 -8.2888,-3.16555 v -3.10799 h 39.8345 v 3.10799 q -5.8745,1.036 -8.0473,3.16555 -2.1729,2.12955 -2.1729,6.73398 v 69.52693 q 0,14.3313 -3.4603,23.42505 -3.4603,9.0362 -15.9338,15.71263 -11.6687,6.15843 -27.2002,8.11531 -15.4509,2.01444 -35.1671,2.01444 -13.761,0 -25.1078,-0.86333 -11.3469,-0.80577 -22.3717,-3.56843 -10.9445,-2.82022 -19.0724,-8.05776 -9.9787,-6.67643 -12.7148,-15.19464 -2.7361,-8.51819 -2.7361,-21.58327 v -69.52693 q 0,-4.60443 -2.0924,-6.73398 -2.0923,-2.12955 -8.1278,-3.16555 z m -65.3697,122.82324 q -21.96948,5.64043 -47.80156,5.64043 -47.8014,0 -77.4159,-17.89973 -14.8875,-9.09376 -23.1764,-22.10128 -8.20841,-13.00753 -8.20841,-27.16616 0,-9.49664 3.62141,-18.41773 3.7018,-8.97864 10.703,-16.69105 7.0013,-7.76999 17.0604,-13.92842 29.0512,-17.95728 77.4159,-17.95728 48.04286,0 77.17446,17.95728 9.8982,6.04332 16.8994,13.87086 7.0818,7.76997 10.7031,16.74861 3.7018,8.92109 3.7018,18.41773 0,14.3313 -8.1278,27.22371 -8.128,12.83486 -23.1765,22.04373 -4.748,3.10798 -10.9445,5.64043 l 16.8191,9.20886 q 4.1846,1.89933 6.9208,1.89933 2.3337,0 6.5988,-3.79866 l 3.2994,1.89933 -24.0617,22.61928 -3.2994,-2.12956 q 2.3337,-3.10798 2.3337,-4.71954 0,-3.10799 -5.3112,-5.87065 z m -18.7505,-10.35997 q -9.09346,-4.89222 -15.20946,-7.42465 -6.0356,-2.53244 -12.8759,-2.53244 -5.8745,0 -11.8296,3.10799 l -2.9775,-2.58999 q 13.1977,-6.15843 27.683,-6.15843 14.32436,0 34.28176,9.66931 36.2937,-16.74863 36.2937,-45.23856 0,-16.11551 -11.5882,-28.37482 -11.5883,-12.25929 -30.9824,-18.70549 -19.39426,-6.44621 -41.84646,-6.44621 -22.6131,0 -42.0878,6.44621 -19.4747,6.4462 -31.063,18.70549 -11.5881,12.25931 -11.5881,28.37482 0,16.28819 11.5881,28.60504 11.5883,12.31686 30.9825,18.87818 19.4748,6.50376 42.1683,6.50376 12.3125,0 29.05106,-2.82021 z m -146.47257,-108.72216 -17.4628,24.97904 -3.9433,-1.1511 q 0.6437,-3.33822 0.6437,-4.94977 0,-2.07199 -3.0579,-3.51088 -3.0581,-1.49644 -7.1623,-2.87777 -21.8888,-8.46065 -52.7103,-8.46065 -23.096,0 -42.8926,5.8131 -19.7161,5.75554 -19.7161,19.8566 0,5.58288 4.3456,10.0722 4.4261,4.43177 12.1516,6.44621 8.6912,2.01443 22.0498,2.82022 7.8865,0.17266 17.2214,0.518 9.4155,0.34533 15.1291,0.46044 21.728,0.51799 34.4428,1.72666 12.7149,1.1511 23.4985,5.58287 10.1396,4.14399 15.2899,11.51108 5.1503,7.30955 5.1503,16.05797 0,13.81329 -12.8757,22.84949 -12.8759,8.97865 -32.1091,13.12264 -19.1528,4.08643 -37.7423,4.08643 -32.109,0 -60.9992,-8.23042 -14.0024,-4.02889 -24.3835,-8.0002 -2.2533,-1.20867 -3.6214,-1.20867 -2.2532,0 -5.8746,2.58999 l -1.6899,1.43889 -3.6213,-1.66911 20.4403,-24.5186 3.9432,1.43888 q -1.6094,1.15111 -1.6094,4.94977 0,1.20867 1.9313,2.7051 2.0119,1.43888 4.9894,2.82021 2.9776,1.38133 5.7137,2.41733 2.8166,1.036 3.7822,1.43889 27.683,10.41753 60.0335,10.41753 13.3587,0 27.5221,-2.47488 14.1634,-2.53244 24.1422,-8.46065 9.9787,-5.98576 9.9787,-15.71262 0,-5.35266 -4.3455,-9.84198 -4.2651,-4.54688 -11.1859,-6.4462 -6.8403,-1.61156 -14.2439,-2.30222 -7.4036,-0.69067 -19.0724,-0.92089 -11.5881,-0.28778 -12.1515,-0.28778 -23.5788,-0.80577 -34.5233,-1.55399 -10.8639,-0.74823 -24.0616,-3.91377 -13.1978,-3.2231 -21.4866,-10.24486 -8.2888,-7.02176 -8.2888,-18.93573 0,-13.81329 12.7954,-22.73438 12.7953,-8.97865 31.7872,-13.06508 18.9918,-4.08643 37.5008,-4.08643 36.6961,0 70.5756,10.87797 4.8283,1.38133 5.6331,1.38133 3.219,0 6.1965,-4.20154 z M 539.6278,463.96161 v 47.65588 h 111.45633 q 6.3574,0 9.4154,-1.49644 3.058,-1.554 4.4261,-5.8131 h 4.587 v 27.33882 h -4.587 q -1.3681,-4.25909 -4.4261,-5.81309 -3.058,-1.49645 -9.4154,-1.49645 H 506.3921 v -3.28066 q 6.03554,-1.09355 8.12786,-3.2231 2.09232,-2.12954 2.09232,-6.67643 V 408.36309 q 0,-4.60443 -2.09232,-6.73398 -2.09232,-2.12955 -8.12786,-3.16555 v -3.10799 h 143.64583 q 6.3575,0 9.335,-1.55399 3.058,-1.61156 4.5065,-5.69799 h 4.3456 v 27.33881 h -4.3456 q -1.368,-4.31664 -4.426,-5.9282 -2.9776,-1.61155 -9.4155,-1.61155 H 539.6278 v 43.56943 h 70.25369 q 6.35744,0 9.33497,-1.61154 3.05797,-1.61156 4.50657,-5.92822 h 4.587 v 27.33883 h -4.587 q -1.4486,-4.14399 -4.50657,-5.69799 -2.97753,-1.61155 -9.33497,-1.61155 z m -206.91316,-39.42515 -35.74206,-32.94047 3.62133,-2.59 c 3.70179,2.072 2.10131,1.75315 4.73012,1.75315 1.23393,0 2.89706,-0.70985 4.98939,-2.12956 10.83715,-8.47983 25.64285,-18.37357 40.66464,-23.01637 15.07543,-4.64281 35.13627,-6.68832 51.55294,-6.68832 23.28377,0 44.37003,6.15834 58.64073,14.48469 15.39733,8.71005 22.36384,21.50509 22.36384,34.62772 0,9.47745 -4.98051,19.29989 -11.7403,26.05305 -6.70616,6.7148 -14.64625,12.12501 -23.82027,16.23063 -9.12037,4.06725 -21.27367,9.79445 -37.2075,15.47325 -13.84151,4.71954 -23.71238,7.96775 -33.52417,11.51774 -8.66733,3.13593 -16.44784,7.18486 -24.4885,12.03015 -4.35335,2.62331 -9.25774,4.40596 -13.01319,11.61957 l 140.53163,-1.25549 c 4.23812,-0.0379 8.09118,-0.22198 10.12985,-1.2196 2.03867,-1.036 3.03074,-2.30865 3.94277,-5.14805 l 3.44916,0.10588 0.81469,38.76763 -4.15509,0.63044 c -0.91203,-2.83939 -1.07519,-3.48278 -3.11386,-4.51878 -2.03867,-0.99763 -5.1556,-0.7398 -9.39165,-0.60213 0,0 -109.87658,1.49786 -159.97262,1.48209 -4.23829,-10e-4 -8.00416,0.1914 -10.22507,0.24713 l -19.09228,0.4791 c 0.26825,-8.09613 -0.73451,-15.04711 2.64539,-21.60842 3.43355,-6.59969 7.98302,-16.27463 15.01107,-22.52899 6.33061,-5.71717 15.72143,-14.41266 24.09071,-19.09383 8.42294,-4.68117 22.43683,-9.95373 31.60792,-13.60624 9.2306,-3.67621 15.2771,-6.21239 26.57317,-10.42006 11.40088,-4.24671 16.86578,-6.89354 23.78374,-9.85457 6.97719,-2.98637 10.52346,-4.94826 15.01806,-8.52484 4.24242,-3.37591 8.57085,-8.70962 9.32336,-11.70134 0.80729,-3.20954 1.90551,-10.45793 -3.46035,-15.52867 -2.76966,-2.61732 -9.01876,-6.36715 -12.95133,-7.88661 -7.51483,-2.90357 -14.97894,-4.15357 -24.20661,-4.15357 -10.40796,0 -18.55564,1.07868 -27.94426,3.53437 -9.38862,2.4557 -17.44096,6.9304 -25.16644,11.76506 -9.22768,5.29509 -14.91276,12.2811 -14.91276,15.00539 0,1.61155 1.42171,3.81785 4.26512,6.61888 z m -215.95844,-7.11321 -30.754762,-31.34694 3.70179,-2.59 c 3.00436,1.88014 3.56043,1.65629 5.8137,1.65629 1.01933,0 2.17279,-0.28778 3.460368,-0.86333 1.341234,-0.57556 2.709294,-1.24704 4.104174,-2.01444 1.39488,-0.80578 2.60199,-1.49645 3.62133,-2.072 26.31161,-16.32411 55.27794,-22.04958 83.63731,-21.13368 12.92273,0.41736 26.20816,0.89829 36.72341,3.35399 10.51526,2.41733 19.79259,5.55501 26.76699,9.66063 7.02805,4.10561 12.72575,8.78699 16.32026,13.96698 3.59449,5.17998 6.95649,12.27573 6.95649,17.76268 0,14.8493 -6.97242,27.80277 -31.38283,33.98038 30.79467,5.56369 45.15492,21.04959 45.15492,41.92302 0,10.32161 -7.2326,22.75605 -16.62121,30.0464 -9.33497,7.25199 -22.0221,13.43954 -36.34645,17.04635 -14.32435,3.56843 -31.48019,4.00453 -45.6436,4.00453 -14.378,0 -30.19643,-0.29125 -42.10656,-2.2865 -11.85649,-1.99525 -25.5589,-5.44855 -38.16647,-9.78439 -2.84341,-1.11274 -6.5452,-2.49407 -11.10539,-4.14399 -4.506542,-1.64993 -11.103482,-3.91151 -11.961872,-3.91151 -1.55583,0 -3.28328,0.43398 -6.98507,2.81294 l -4.26513,-1.89933 23.995172,-39.39823 4.34559,1.61155 c -1.12663,1.80341 -0.51051,3.86659 -0.51051,5.70836 0.59014,2.34059 4.37325,5.47657 13.70821,9.88915 17.91885,8.17287 44.52465,16.11698 70.10886,15.54109 11.42305,-0.25713 20.16732,-0.44315 30.78912,-2.7663 8.99677,-1.96773 16.18557,-3.8346 21.71374,-8.74341 5.57723,-4.95236 6.77826,-6.73617 6.77826,-13.18238 0,-9.36235 -4.4544,-14.33039 -13.89667,-19.7406 -10.40795,-5.79391 -17.4144,-7.67218 -39.0887,-7.67218 h -20.44036 c -4.18464,0 -7.2963,0.518 -9.33497,1.554 -1.98502,1.036 -3.4872,2.95452 -4.50654,5.75554 h -5.2308 l -0.14219,-39.05623 h 5.2308 c 1.01933,2.91614 1.99593,3.6609 3.98096,4.73527 1.98501,1.036 5.10002,1.72257 9.33497,1.554 l 18.13935,-0.72201 c 9.59563,-0.38194 17.04883,-0.66066 22.58733,-2.24371 13.05506,-3.73148 20.36074,-10.46575 19.90196,-18.20337 -0.82374,-13.89298 -24.72004,-21.76287 -46.19461,-21.49746 -24.625,0 -40.94324,5.72995 -59.63645,14.75156 -2.62881,1.49644 -4.61383,2.64755 -5.95507,3.45332 -1.28758,0.76741 -2.60198,1.78422 -3.94321,3.05044 -1.34123,1.26622 -2.01185,2.49407 -2.01185,3.68355 0,1.03599 0.99252,2.83939 2.97754,5.4102 z" />
    </g>
  </g>
</svg>
