<?xml version="1.0" encoding="UTF-8" standalone="no"?>
<!-- Created with Inkscape (http://www.inkscape.org/) -->

<svg
   version="1.1"
   id="svg186960"
   width="8.5in"
   height="11in"
   viewBox="0 0 816 1056"
   sodipodi:docname="customer.svg"
   inkscape:version="1.1.2 (0a00cf5339, 2022-02-04)"
   inkscape:export-filename="customer-bg.png"
   inkscape:export-xdpi="200"
   inkscape:export-ydpi="200"
   xmlns:inkscape="http://www.inkscape.org/namespaces/inkscape"
   xmlns:sodipodi="http://sodipodi.sourceforge.net/DTD/sodipodi-0.dtd"
   xmlns:xlink="http://www.w3.org/1999/xlink"
   xmlns="http://www.w3.org/2000/svg"
   xmlns:svg="http://www.w3.org/2000/svg">
  <defs
     id="defs186964">
    <clipPath
       clipPathUnits="userSpaceOnUse"
       id="clipPath23375">
      <rect
         style="fill:#000000;fill-opacity:0.467259;fill-rule:evenodd;stroke-width:1.00157;stop-color:#000000"
         id="rect23377"
         width="496.8028"
         height="386.46567"
         x="235.4977"
         y="583.81158" />
    </clipPath>
    <filter
       inkscape:collect="always"
       style="color-interpolation-filters:sRGB"
       id="filter26607"
       x="-0.0028583739"
       y="-0.003156392"
       width="1.0057167"
       height="1.0063128">
      <feGaussianBlur
         inkscape:collect="always"
         stdDeviation="0.63038453"
         id="feGaussianBlur26609" />
    </filter>
    <clipPath
       clipPathUnits="userSpaceOnUse"
       id="clipPath26619">
      <text
         xml:space="preserve"
         style="font-style:normal;font-variant:normal;font-weight:normal;font-stretch:normal;font-size:122.415px;line-height:1.3;font-family:'Six Caps';-inkscape-font-specification:'Six Caps';letter-spacing:0px;word-spacing:0px;stroke-width:0.999996"
         x="408"
         y="362.95706"
         id="text26627"><tspan
           sodipodi:role="line"
           id="tspan26621"
           x="408"
           y="362.95706"
           style="font-weight:normal;text-align:center;text-anchor:middle;stroke-width:0.999996">JENSEN HUANG'S</tspan><tspan
           sodipodi:role="line"
           x="408"
           y="522.09656"
           id="tspan26623"
           style="font-weight:normal;text-align:center;text-anchor:middle;stroke-width:0.999996">ABOUT TO MAKE</tspan><tspan
           sodipodi:role="line"
           x="408"
           y="681.23602"
           id="tspan26625"
           style="font-weight:normal;text-align:center;text-anchor:middle;stroke-width:0.999996">YOU HIS CUSTOMER.</tspan></text>
    </clipPath>
    <filter
       inkscape:collect="always"
       style="color-interpolation-filters:sRGB"
       id="filter26637"
       x="-0.011000452"
       y="-0.011316041"
       width="1.0220009"
       height="1.0226321">
      <feGaussianBlur
         inkscape:collect="always"
         stdDeviation="2.006013"
         id="feGaussianBlur26639" />
    </filter>
  </defs>
  <sodipodi:namedview
     id="namedview186962"
     pagecolor="#ffffff"
     bordercolor="#666666"
     borderopacity="1.0"
     inkscape:pageshadow="2"
     inkscape:pageopacity="0.0"
     inkscape:pagecheckerboard="0"
     showgrid="false"
     inkscape:snap-global="true"
     inkscape:zoom="0.95438903"
     inkscape:cx="307.00269"
     inkscape:cy="614.00538"
     inkscape:window-width="2240"
     inkscape:window-height="1782"
     inkscape:window-x="112"
     inkscape:window-y="168"
     inkscape:window-maximized="0"
     inkscape:current-layer="g186966"
     units="in"
     inkscape:document-units="in"
     borderlayer="true" />
  <g
     inkscape:groupmode="layer"
     inkscape:label="Image"
     id="g186966">
    <rect
       style="font-variation-settings:normal;opacity:1;vector-effect:none;fill:#9ae86a;fill-opacity:1;fill-rule:evenodd;stroke:none;stroke-width:0.999996;stroke-linecap:butt;stroke-linejoin:miter;stroke-miterlimit:4;stroke-dasharray:none;stroke-dashoffset:0;stroke-opacity:1;-inkscape-stroke:none;stop-color:#000000;stop-opacity:1"
       id="rect204760"
       width="861.38196"
       height="1125.7109"
       x="-24.888405"
       y="-27.696785" />
    <rect
       style="font-variation-settings:normal;opacity:1;fill:#84f73c;fill-opacity:1;fill-rule:evenodd;stroke:none;stroke-width:1.02897;stroke-linecap:butt;stroke-linejoin:miter;stroke-miterlimit:4;stroke-dasharray:none;stroke-dashoffset:0;stroke-opacity:1;stop-color:#000000;stop-opacity:1"
       id="rect204370"
       width="56.630676"
       height="1195.6665"
       x="617.08673"
       y="-17.675571"
       transform="matrix(1,0,-0.31989659,0.94745246,0,0)" />
    <rect
       style="font-variation-settings:normal;opacity:1;fill:#84f73c;fill-opacity:1;fill-rule:evenodd;stroke:none;stroke-width:1.02897;stroke-linecap:butt;stroke-linejoin:miter;stroke-miterlimit:4;stroke-dasharray:none;stroke-dashoffset:0;stroke-opacity:1;stop-color:#000000;stop-opacity:1"
       id="rect214255"
       width="56.630676"
       height="1195.6665"
       x="732.25488"
       y="-17.675571"
       transform="matrix(1,0,-0.31989659,0.94745246,0,0)" />
    <rect
       style="font-variation-settings:normal;opacity:1;fill:#84f73c;fill-opacity:1;fill-rule:evenodd;stroke:none;stroke-width:1.02897;stroke-linecap:butt;stroke-linejoin:miter;stroke-miterlimit:4;stroke-dasharray:none;stroke-dashoffset:0;stroke-opacity:1;stop-color:#000000;stop-opacity:1"
       id="rect214257"
       width="56.630676"
       height="1195.6665"
       x="847.42297"
       y="-17.675571"
       transform="matrix(1,0,-0.31989659,0.94745246,0,0)" />
    <rect
       style="font-variation-settings:normal;opacity:1;fill:#84f73c;fill-opacity:1;fill-rule:evenodd;stroke:none;stroke-width:1.02897;stroke-linecap:butt;stroke-linejoin:miter;stroke-miterlimit:4;stroke-dasharray:none;stroke-dashoffset:0;stroke-opacity:1;stop-color:#000000;stop-opacity:1"
       id="rect214259"
       width="56.630676"
       height="1195.6665"
       x="962.59106"
       y="-17.675571"
       transform="matrix(1,0,-0.31989659,0.94745246,0,0)" />
    <rect
       style="font-variation-settings:normal;opacity:1;fill:#84f73c;fill-opacity:1;fill-rule:evenodd;stroke:none;stroke-width:1.02897;stroke-linecap:butt;stroke-linejoin:miter;stroke-miterlimit:4;stroke-dasharray:none;stroke-dashoffset:0;stroke-opacity:1;stop-color:#000000;stop-opacity:1"
       id="rect214261"
       width="56.630676"
       height="1195.6665"
       x="1077.7593"
       y="-17.675571"
       transform="matrix(1,0,-0.31989659,0.94745246,0,0)" />
    <rect
       style="font-variation-settings:normal;opacity:1;fill:#84f73c;fill-opacity:1;fill-rule:evenodd;stroke:none;stroke-width:1.02897;stroke-linecap:butt;stroke-linejoin:miter;stroke-miterlimit:4;stroke-dasharray:none;stroke-dashoffset:0;stroke-opacity:1;stop-color:#000000;stop-opacity:1"
       id="rect214263"
       width="56.630676"
       height="1195.6665"
       x="501.91858"
       y="-17.675571"
       transform="matrix(1,0,-0.31989659,0.94745246,0,0)" />
    <g
       id="g204094"
       transform="matrix(0.14678322,0,0,0.14678322,297.12859,864.21636)"
       style="stroke-width:6.81278">
      <path
         id="path204060"
         style="font-size:278.76px;line-height:0.55;font-family:Copperplate;-inkscape-font-specification:Copperplate;letter-spacing:0px;word-spacing:0px;fill:#000000;stroke:none;stroke-width:6.81272"
         d="m 1303.1201,469.82097 v 47.65588 h 111.4563 q 6.3575,0 9.4155,-1.49644 3.058,-1.554 4.4261,-5.8131 h 4.5869 v 27.33882 h -4.5869 q -1.3681,-4.25909 -4.4261,-5.81309 -3.058,-1.49645 -9.4155,-1.49645 h -144.692 v -3.28066 q 6.0355,-1.09355 8.1279,-3.2231 2.0923,-2.12954 2.0923,-6.67643 V 414.22245 q 0,-4.60443 -2.0923,-6.73398 -2.0924,-2.12955 -8.1279,-3.16555 v -3.10799 h 143.6459 q 6.3574,0 9.335,-1.55399 3.0579,-1.61156 4.5064,-5.69799 h 4.3457 v 27.33881 h -4.3457 q -1.3679,-4.31664 -4.426,-5.9282 -2.9775,-1.61155 -9.4154,-1.61155 h -110.4102 v 43.56943 h 70.2537 q 6.3574,0 9.335,-1.61154 3.058,-1.61156 4.5066,-5.92822 h 4.5869 v 27.33883 h -4.5869 q -1.4486,-4.14399 -4.5066,-5.69799 -2.9776,-1.61155 -9.335,-1.61155 z m -223.0715,-65.49805 v -3.10799 h 43.7778 v 3.10799 q -6.116,1.036 -8.3693,3.16555 -2.1728,2.12955 -2.1728,6.73398 v 66.47649 5.64043 q 0,18.24507 11.2663,24.97905 14.4853,8.28798 49.7329,8.28798 38.9493,0 52.3885,-10.12975 8.2888,-5.92821 8.2888,-21.46817 v -7.30954 -66.47649 q 0,-4.60443 -2.2533,-6.73398 -2.1728,-2.12955 -8.2888,-3.16555 v -3.10799 h 39.8345 v 3.10799 q -5.8745,1.036 -8.0473,3.16555 -2.1729,2.12955 -2.1729,6.73398 v 69.52693 q 0,14.3313 -3.4603,23.42505 -3.4603,9.0362 -15.9338,15.71263 -11.6687,6.15843 -27.2002,8.11531 -15.4509,2.01444 -35.1671,2.01444 -13.761,0 -25.1078,-0.86333 -11.3469,-0.80577 -22.3717,-3.56843 -10.9445,-2.82022 -19.0724,-8.05776 -9.9787,-6.67643 -12.7148,-15.19464 -2.7361,-8.51819 -2.7361,-21.58327 v -69.52693 q 0,-4.60443 -2.0924,-6.73398 -2.0923,-2.12955 -8.1278,-3.16555 z m -65.3697,122.82324 q -21.96958,5.64043 -47.80168,5.64043 -47.8014,0 -77.4159,-17.89973 -14.8875,-9.09376 -23.1764,-22.10128 -8.2084,-13.00753 -8.2084,-27.16616 0,-9.49664 3.6214,-18.41773 3.7018,-8.97864 10.703,-16.69105 7.0013,-7.76999 17.0604,-13.92842 29.0512,-17.95728 77.4159,-17.95728 48.04298,0 77.17458,17.95728 9.8982,6.04332 16.8994,13.87086 7.0818,7.76997 10.7031,16.74861 3.7018,8.92109 3.7018,18.41773 0,14.3313 -8.1278,27.22371 -8.128,12.83486 -23.1765,22.04373 -4.748,3.10798 -10.9445,5.64043 l 16.8191,9.20886 q 4.1846,1.89933 6.9208,1.89933 2.3337,0 6.5988,-3.79866 l 3.2994,1.89933 -24.0617,22.61928 -3.2994,-2.12956 q 2.3337,-3.10798 2.3337,-4.71954 0,-3.10799 -5.3112,-5.87065 z m -18.75054,-10.35997 q -9.09354,-4.89222 -15.20954,-7.42465 -6.0356,-2.53244 -12.8759,-2.53244 -5.8745,0 -11.8296,3.10799 l -2.9775,-2.58999 q 13.1977,-6.15843 27.683,-6.15843 14.32444,0 34.28188,9.66931 36.2937,-16.74863 36.2937,-45.23856 0,-16.11551 -11.5882,-28.37482 -11.5883,-12.25929 -30.9824,-18.70549 -19.39438,-6.44621 -41.84658,-6.44621 -22.6131,0 -42.0878,6.44621 -19.4747,6.4462 -31.063,18.70549 -11.5881,12.25931 -11.5881,28.37482 0,16.28819 11.5881,28.60504 11.5883,12.31686 30.9825,18.87818 19.4748,6.50376 42.1683,6.50376 12.3125,0 29.05114,-2.82021 z m -146.47264,-108.72216 -17.4628,24.97904 -3.9433,-1.1511 q 0.6437,-3.33822 0.6437,-4.94977 0,-2.07199 -3.0579,-3.51088 -3.0581,-1.49644 -7.1623,-2.87777 -21.8888,-8.46065 -52.7103,-8.46065 -23.096,0 -42.8926,5.8131 -19.7161,5.75554 -19.7161,19.8566 0,5.58288 4.3456,10.0722 4.4261,4.43177 12.1516,6.44621 8.6912,2.01443 22.0498,2.82022 7.8865,0.17266 17.2214,0.518 9.4155,0.34533 15.1291,0.46044 21.728,0.51799 34.4428,1.72666 12.7149,1.1511 23.4985,5.58287 10.1396,4.14399 15.2899,11.51108 5.1503,7.30955 5.1503,16.05797 0,13.81329 -12.8757,22.84949 -12.8759,8.97865 -32.1091,13.12264 -19.1528,4.08643 -37.7423,4.08643 -32.109,0 -60.9992,-8.23042 -14.0024,-4.02889 -24.3835,-8.0002 -2.2533,-1.20867 -3.6214,-1.20867 -2.2532,0 -5.8746,2.58999 l -1.6899,1.43889 -3.6213,-1.66911 20.4403,-24.5186 3.9432,1.43888 q -1.6094,1.15111 -1.6094,4.94977 0,1.20867 1.9313,2.7051 2.0119,1.43888 4.9894,2.82021 2.9776,1.38133 5.7137,2.41733 2.8166,1.036 3.7822,1.43889 27.683,10.41753 60.0335,10.41753 13.3587,0 27.5221,-2.47488 14.1634,-2.53244 24.1422,-8.46065 9.9787,-5.98576 9.9787,-15.71262 0,-5.35266 -4.3455,-9.84198 -4.2651,-4.54688 -11.1859,-6.4462 -6.8403,-1.61156 -14.2439,-2.30222 -7.4036,-0.69067 -19.0724,-0.92089 -11.5881,-0.28778 -12.1515,-0.28778 -23.5788,-0.80577 -34.5233,-1.55399 -10.8639,-0.74823 -24.0616,-3.91377 -13.1978,-3.2231 -21.4866,-10.24486 -8.2888,-7.02176 -8.2888,-18.93573 0,-13.81329 12.7954,-22.73438 12.7953,-8.97865 31.7872,-13.06508 18.9918,-4.08643 37.5008,-4.08643 36.6961,0 70.5756,10.87797 4.8283,1.38133 5.6331,1.38133 3.219,0 6.1965,-4.20154 z m -315.76053,61.75694 v 47.65588 h 111.45633 q 6.3574,0 9.4154,-1.49644 3.058,-1.554 4.4261,-5.8131 h 4.587 v 27.33882 h -4.587 q -1.3681,-4.25909 -4.4261,-5.81309 -3.058,-1.49645 -9.4154,-1.49645 H 500.45949 v -3.28066 q 6.03554,-1.09355 8.12786,-3.2231 2.09232,-2.12954 2.09232,-6.67643 V 414.22245 q 0,-4.60443 -2.09232,-6.73398 -2.09232,-2.12955 -8.12786,-3.16555 v -3.10799 h 143.64583 q 6.3575,0 9.335,-1.55399 3.058,-1.61156 4.5065,-5.69799 h 4.3456 v 27.33881 h -4.3456 q -1.368,-4.31664 -4.426,-5.9282 -2.9776,-1.61155 -9.4155,-1.61155 H 533.69519 v 43.56943 h 70.25369 q 6.35744,0 9.33497,-1.61154 3.05797,-1.61156 4.50657,-5.92822 h 4.587 v 27.33883 h -4.587 q -1.4486,-4.14399 -4.50657,-5.69799 -2.97753,-1.61155 -9.33497,-1.61155 z m -206.91316,-39.42515 -35.74206,-32.94047 3.62133,-2.59 c 3.70179,2.072 2.10131,1.75315 4.73012,1.75315 1.23393,0 2.89706,-0.70985 4.98939,-2.12956 10.83715,-8.47983 25.64285,-18.37357 40.66464,-23.01637 15.07543,-4.64281 35.13627,-6.68832 51.55294,-6.68832 23.28377,0 44.37003,6.15834 58.64073,14.48469 15.39733,8.71005 22.36384,21.50509 22.36384,34.62772 0,9.47745 -4.98051,19.29989 -11.7403,26.05305 -6.70616,6.7148 -14.64625,12.12501 -23.82027,16.23063 -9.12037,4.06725 -21.27367,9.79445 -37.2075,15.47325 -13.84151,4.71954 -23.71238,7.96775 -33.52417,11.51774 -8.66733,3.13593 -16.44784,7.18486 -24.4885,12.03015 -4.35335,2.62331 -9.25774,4.40596 -13.01319,11.61957 l 140.53163,-1.25549 c 4.23812,-0.0379 8.09118,-0.22198 10.12985,-1.2196 2.03867,-1.036 3.03074,-2.30865 3.94277,-5.14805 l 3.44916,0.10588 0.81469,38.76763 -4.15509,0.63044 c -0.91203,-2.83939 -1.07519,-3.48278 -3.11386,-4.51878 -2.03867,-0.99763 -5.1556,-0.7398 -9.39165,-0.60213 0,0 -109.87658,1.49786 -159.97262,1.48209 -4.23829,-10e-4 -8.00416,0.1914 -10.22507,0.24713 l -19.09228,0.4791 c 0.26825,-8.09613 -0.73451,-15.04711 2.64539,-21.60842 3.43355,-6.59969 7.98302,-16.27463 15.01107,-22.52899 6.33061,-5.71717 15.72143,-14.41266 24.09071,-19.09383 8.42294,-4.68117 22.43683,-9.95373 31.60792,-13.60624 9.2306,-3.67621 15.2771,-6.21239 26.57317,-10.42006 11.40088,-4.24671 16.86578,-6.89354 23.78374,-9.85457 6.97719,-2.98637 10.52346,-4.94826 15.01806,-8.52484 4.24242,-3.37591 8.57085,-8.70962 9.32336,-11.70134 0.80729,-3.20954 1.90551,-10.45793 -3.46035,-15.52867 -2.76966,-2.61732 -9.01876,-6.36715 -12.95133,-7.88661 -7.51483,-2.90357 -14.97894,-4.15357 -24.20661,-4.15357 -10.40796,0 -18.55564,1.07868 -27.94426,3.53437 -9.38862,2.4557 -17.44096,6.9304 -25.16644,11.76506 -9.22768,5.29509 -14.91276,12.2811 -14.91276,15.00539 0,1.61155 1.42171,3.81785 4.26512,6.61888 z m -215.95844,-7.11321 -30.754765,-31.34694 3.70179,-2.59 c 3.00436,1.88014 3.56043,1.65629 5.8137,1.65629 1.01933,0 2.17279,-0.28778 3.46037,-0.86333 1.341234,-0.57556 2.709294,-1.24704 4.104174,-2.01444 1.39488,-0.80578 2.60199,-1.49645 3.621331,-2.072 26.31161,-16.32411 55.27794,-22.04958 83.63731,-21.13368 12.92273,0.41736 26.20816,0.89829 36.72341,3.35399 10.51526,2.41733 19.79259,5.55501 26.76699,9.66063 7.02805,4.10561 12.72575,8.78699 16.32026,13.96698 3.59449,5.17998 6.95649,12.27573 6.95649,17.76268 0,14.8493 -6.97242,27.80277 -31.38283,33.98038 30.79467,5.56369 45.15492,21.04959 45.15492,41.92302 0,10.32161 -7.2326,22.75605 -16.62121,30.0464 -9.33497,7.25199 -22.0221,13.43954 -36.34645,17.04635 -14.32435,3.56843 -31.48019,4.00453 -45.6436,4.00453 -14.378,0 -30.19643,-0.29125 -42.10656,-2.2865 -11.85649,-1.99525 -25.5589,-5.44855 -38.16647,-9.78439 -2.84341,-1.11274 -6.545201,-2.49407 -11.105391,-4.14399 -4.506544,-1.64993 -11.103484,-3.91151 -11.961874,-3.91151 -1.55583,0 -3.28328,0.43398 -6.98507,2.81294 l -4.26513,-1.89933 23.995174,-39.39823 4.345591,1.61155 c -1.126631,1.80341 -0.510511,3.86659 -0.510511,5.70836 0.590141,2.34059 4.373251,5.47657 13.708211,9.88915 17.91885,8.17287 44.52465,16.11698 70.10886,15.54109 11.42305,-0.25713 20.16732,-0.44315 30.78912,-2.7663 8.99677,-1.96773 16.18557,-3.8346 21.71374,-8.74341 5.57723,-4.95236 6.77826,-6.73617 6.77826,-13.18238 0,-9.36235 -4.4544,-14.33039 -13.89667,-19.7406 -10.40795,-5.79391 -17.4144,-7.67218 -39.0887,-7.67218 H 169.2477 c -4.18464,0 -7.2963,0.518 -9.33497,1.554 -1.98502,1.036 -3.4872,2.95452 -4.50654,5.75554 h -5.2308 l -0.14219,-39.05623 h 5.2308 c 1.01933,2.91614 1.99593,3.6609 3.98096,4.73527 1.98501,1.036 5.10002,1.72257 9.33497,1.554 l 18.13935,-0.72201 c 9.59563,-0.38194 17.04883,-0.66066 22.58733,-2.24371 13.05506,-3.73148 20.36074,-10.46575 19.90196,-18.20337 -0.82374,-13.89298 -24.72004,-21.76287 -46.19461,-21.49746 -24.625,0 -40.94324,5.72995 -59.63645,14.75156 -2.62881,1.49644 -4.61383,2.64755 -5.95507,3.45332 -1.28758,0.76741 -2.60198,1.78422 -3.94321,3.05044 -1.34123,1.26622 -2.01185,2.49407 -2.01185,3.68355 0,1.03599 0.99252,2.83939 2.97754,5.4102 z" />
      <path
         id="path195297"
         style="font-size:278.76px;line-height:0.55;font-family:Copperplate;-inkscape-font-specification:Copperplate;letter-spacing:0px;word-spacing:0px;fill:#e93333;fill-opacity:1;stroke:none;stroke-width:6.81272"
         d="m 1309.0526,463.96161 v 47.65588 h 111.4563 q 6.3575,0 9.4155,-1.49644 3.058,-1.554 4.4261,-5.8131 h 4.5869 v 27.33882 h -4.5869 q -1.3681,-4.25909 -4.4261,-5.81309 -3.058,-1.49645 -9.4155,-1.49645 h -144.692 v -3.28066 q 6.0355,-1.09355 8.1279,-3.2231 2.0923,-2.12954 2.0923,-6.67643 V 408.36309 q 0,-4.60443 -2.0923,-6.73398 -2.0924,-2.12955 -8.1279,-3.16555 v -3.10799 h 143.6459 q 6.3574,0 9.335,-1.55399 3.0579,-1.61156 4.5064,-5.69799 h 4.3457 v 27.33881 h -4.3457 q -1.3679,-4.31664 -4.426,-5.9282 -2.9775,-1.61155 -9.4154,-1.61155 h -110.4102 v 43.56943 h 70.2537 q 6.3574,0 9.335,-1.61154 3.058,-1.61156 4.5066,-5.92822 h 4.5869 v 27.33883 h -4.5869 q -1.4486,-4.14399 -4.5066,-5.69799 -2.9776,-1.61155 -9.335,-1.61155 z m -223.0715,-65.49805 v -3.10799 h 43.7778 v 3.10799 q -6.116,1.036 -8.3693,3.16555 -2.1728,2.12955 -2.1728,6.73398 v 66.47649 5.64043 q 0,18.24507 11.2663,24.97905 14.4853,8.28798 49.7329,8.28798 38.9493,0 52.3885,-10.12975 8.2888,-5.92821 8.2888,-21.46817 v -7.30954 -66.47649 q 0,-4.60443 -2.2533,-6.73398 -2.1728,-2.12955 -8.2888,-3.16555 v -3.10799 h 39.8345 v 3.10799 q -5.8745,1.036 -8.0473,3.16555 -2.1729,2.12955 -2.1729,6.73398 v 69.52693 q 0,14.3313 -3.4603,23.42505 -3.4603,9.0362 -15.9338,15.71263 -11.6687,6.15843 -27.2002,8.11531 -15.4509,2.01444 -35.1671,2.01444 -13.761,0 -25.1078,-0.86333 -11.3469,-0.80577 -22.3717,-3.56843 -10.9445,-2.82022 -19.0724,-8.05776 -9.9787,-6.67643 -12.7148,-15.19464 -2.7361,-8.51819 -2.7361,-21.58327 v -69.52693 q 0,-4.60443 -2.0924,-6.73398 -2.0923,-2.12955 -8.1278,-3.16555 z m -65.3697,122.82324 q -21.96948,5.64043 -47.80156,5.64043 -47.8014,0 -77.4159,-17.89973 -14.8875,-9.09376 -23.1764,-22.10128 -8.20841,-13.00753 -8.20841,-27.16616 0,-9.49664 3.62141,-18.41773 3.7018,-8.97864 10.703,-16.69105 7.0013,-7.76999 17.0604,-13.92842 29.0512,-17.95728 77.4159,-17.95728 48.04286,0 77.17446,17.95728 9.8982,6.04332 16.8994,13.87086 7.0818,7.76997 10.7031,16.74861 3.7018,8.92109 3.7018,18.41773 0,14.3313 -8.1278,27.22371 -8.128,12.83486 -23.1765,22.04373 -4.748,3.10798 -10.9445,5.64043 l 16.8191,9.20886 q 4.1846,1.89933 6.9208,1.89933 2.3337,0 6.5988,-3.79866 l 3.2994,1.89933 -24.0617,22.61928 -3.2994,-2.12956 q 2.3337,-3.10798 2.3337,-4.71954 0,-3.10799 -5.3112,-5.87065 z m -18.7505,-10.35997 q -9.09346,-4.89222 -15.20946,-7.42465 -6.0356,-2.53244 -12.8759,-2.53244 -5.8745,0 -11.8296,3.10799 l -2.9775,-2.58999 q 13.1977,-6.15843 27.683,-6.15843 14.32436,0 34.28176,9.66931 36.2937,-16.74863 36.2937,-45.23856 0,-16.11551 -11.5882,-28.37482 -11.5883,-12.25929 -30.9824,-18.70549 -19.39426,-6.44621 -41.84646,-6.44621 -22.6131,0 -42.0878,6.44621 -19.4747,6.4462 -31.063,18.70549 -11.5881,12.25931 -11.5881,28.37482 0,16.28819 11.5881,28.60504 11.5883,12.31686 30.9825,18.87818 19.4748,6.50376 42.1683,6.50376 12.3125,0 29.05106,-2.82021 z m -146.47257,-108.72216 -17.4628,24.97904 -3.9433,-1.1511 q 0.6437,-3.33822 0.6437,-4.94977 0,-2.07199 -3.0579,-3.51088 -3.0581,-1.49644 -7.1623,-2.87777 -21.8888,-8.46065 -52.7103,-8.46065 -23.096,0 -42.8926,5.8131 -19.7161,5.75554 -19.7161,19.8566 0,5.58288 4.3456,10.0722 4.4261,4.43177 12.1516,6.44621 8.6912,2.01443 22.0498,2.82022 7.8865,0.17266 17.2214,0.518 9.4155,0.34533 15.1291,0.46044 21.728,0.51799 34.4428,1.72666 12.7149,1.1511 23.4985,5.58287 10.1396,4.14399 15.2899,11.51108 5.1503,7.30955 5.1503,16.05797 0,13.81329 -12.8757,22.84949 -12.8759,8.97865 -32.1091,13.12264 -19.1528,4.08643 -37.7423,4.08643 -32.109,0 -60.9992,-8.23042 -14.0024,-4.02889 -24.3835,-8.0002 -2.2533,-1.20867 -3.6214,-1.20867 -2.2532,0 -5.8746,2.58999 l -1.6899,1.43889 -3.6213,-1.66911 20.4403,-24.5186 3.9432,1.43888 q -1.6094,1.15111 -1.6094,4.94977 0,1.20867 1.9313,2.7051 2.0119,1.43888 4.9894,2.82021 2.9776,1.38133 5.7137,2.41733 2.8166,1.036 3.7822,1.43889 27.683,10.41753 60.0335,10.41753 13.3587,0 27.5221,-2.47488 14.1634,-2.53244 24.1422,-8.46065 9.9787,-5.98576 9.9787,-15.71262 0,-5.35266 -4.3455,-9.84198 -4.2651,-4.54688 -11.1859,-6.4462 -6.8403,-1.61156 -14.2439,-2.30222 -7.4036,-0.69067 -19.0724,-0.92089 -11.5881,-0.28778 -12.1515,-0.28778 -23.5788,-0.80577 -34.5233,-1.55399 -10.8639,-0.74823 -24.0616,-3.91377 -13.1978,-3.2231 -21.4866,-10.24486 -8.2888,-7.02176 -8.2888,-18.93573 0,-13.81329 12.7954,-22.73438 12.7953,-8.97865 31.7872,-13.06508 18.9918,-4.08643 37.5008,-4.08643 36.6961,0 70.5756,10.87797 4.8283,1.38133 5.6331,1.38133 3.219,0 6.1965,-4.20154 z M 539.6278,463.96161 v 47.65588 h 111.45633 q 6.3574,0 9.4154,-1.49644 3.058,-1.554 4.4261,-5.8131 h 4.587 v 27.33882 h -4.587 q -1.3681,-4.25909 -4.4261,-5.81309 -3.058,-1.49645 -9.4154,-1.49645 H 506.3921 v -3.28066 q 6.03554,-1.09355 8.12786,-3.2231 2.09232,-2.12954 2.09232,-6.67643 V 408.36309 q 0,-4.60443 -2.09232,-6.73398 -2.09232,-2.12955 -8.12786,-3.16555 v -3.10799 h 143.64583 q 6.3575,0 9.335,-1.55399 3.058,-1.61156 4.5065,-5.69799 h 4.3456 v 27.33881 h -4.3456 q -1.368,-4.31664 -4.426,-5.9282 -2.9776,-1.61155 -9.4155,-1.61155 H 539.6278 v 43.56943 h 70.25369 q 6.35744,0 9.33497,-1.61154 3.05797,-1.61156 4.50657,-5.92822 h 4.587 v 27.33883 h -4.587 q -1.4486,-4.14399 -4.50657,-5.69799 -2.97753,-1.61155 -9.33497,-1.61155 z m -206.91316,-39.42515 -35.74206,-32.94047 3.62133,-2.59 c 3.70179,2.072 2.10131,1.75315 4.73012,1.75315 1.23393,0 2.89706,-0.70985 4.98939,-2.12956 10.83715,-8.47983 25.64285,-18.37357 40.66464,-23.01637 15.07543,-4.64281 35.13627,-6.68832 51.55294,-6.68832 23.28377,0 44.37003,6.15834 58.64073,14.48469 15.39733,8.71005 22.36384,21.50509 22.36384,34.62772 0,9.47745 -4.98051,19.29989 -11.7403,26.05305 -6.70616,6.7148 -14.64625,12.12501 -23.82027,16.23063 -9.12037,4.06725 -21.27367,9.79445 -37.2075,15.47325 -13.84151,4.71954 -23.71238,7.96775 -33.52417,11.51774 -8.66733,3.13593 -16.44784,7.18486 -24.4885,12.03015 -4.35335,2.62331 -9.25774,4.40596 -13.01319,11.61957 l 140.53163,-1.25549 c 4.23812,-0.0379 8.09118,-0.22198 10.12985,-1.2196 2.03867,-1.036 3.03074,-2.30865 3.94277,-5.14805 l 3.44916,0.10588 0.81469,38.76763 -4.15509,0.63044 c -0.91203,-2.83939 -1.07519,-3.48278 -3.11386,-4.51878 -2.03867,-0.99763 -5.1556,-0.7398 -9.39165,-0.60213 0,0 -109.87658,1.49786 -159.97262,1.48209 -4.23829,-10e-4 -8.00416,0.1914 -10.22507,0.24713 l -19.09228,0.4791 c 0.26825,-8.09613 -0.73451,-15.04711 2.64539,-21.60842 3.43355,-6.59969 7.98302,-16.27463 15.01107,-22.52899 6.33061,-5.71717 15.72143,-14.41266 24.09071,-19.09383 8.42294,-4.68117 22.43683,-9.95373 31.60792,-13.60624 9.2306,-3.67621 15.2771,-6.21239 26.57317,-10.42006 11.40088,-4.24671 16.86578,-6.89354 23.78374,-9.85457 6.97719,-2.98637 10.52346,-4.94826 15.01806,-8.52484 4.24242,-3.37591 8.57085,-8.70962 9.32336,-11.70134 0.80729,-3.20954 1.90551,-10.45793 -3.46035,-15.52867 -2.76966,-2.61732 -9.01876,-6.36715 -12.95133,-7.88661 -7.51483,-2.90357 -14.97894,-4.15357 -24.20661,-4.15357 -10.40796,0 -18.55564,1.07868 -27.94426,3.53437 -9.38862,2.4557 -17.44096,6.9304 -25.16644,11.76506 -9.22768,5.29509 -14.91276,12.2811 -14.91276,15.00539 0,1.61155 1.42171,3.81785 4.26512,6.61888 z m -215.95844,-7.11321 -30.754762,-31.34694 3.70179,-2.59 c 3.00436,1.88014 3.56043,1.65629 5.8137,1.65629 1.01933,0 2.17279,-0.28778 3.460368,-0.86333 1.341234,-0.57556 2.709294,-1.24704 4.104174,-2.01444 1.39488,-0.80578 2.60199,-1.49645 3.62133,-2.072 26.31161,-16.32411 55.27794,-22.04958 83.63731,-21.13368 12.92273,0.41736 26.20816,0.89829 36.72341,3.35399 10.51526,2.41733 19.79259,5.55501 26.76699,9.66063 7.02805,4.10561 12.72575,8.78699 16.32026,13.96698 3.59449,5.17998 6.95649,12.27573 6.95649,17.76268 0,14.8493 -6.97242,27.80277 -31.38283,33.98038 30.79467,5.56369 45.15492,21.04959 45.15492,41.92302 0,10.32161 -7.2326,22.75605 -16.62121,30.0464 -9.33497,7.25199 -22.0221,13.43954 -36.34645,17.04635 -14.32435,3.56843 -31.48019,4.00453 -45.6436,4.00453 -14.378,0 -30.19643,-0.29125 -42.10656,-2.2865 -11.85649,-1.99525 -25.5589,-5.44855 -38.16647,-9.78439 -2.84341,-1.11274 -6.5452,-2.49407 -11.10539,-4.14399 -4.506542,-1.64993 -11.103482,-3.91151 -11.961872,-3.91151 -1.55583,0 -3.28328,0.43398 -6.98507,2.81294 l -4.26513,-1.89933 23.995172,-39.39823 4.34559,1.61155 c -1.12663,1.80341 -0.51051,3.86659 -0.51051,5.70836 0.59014,2.34059 4.37325,5.47657 13.70821,9.88915 17.91885,8.17287 44.52465,16.11698 70.10886,15.54109 11.42305,-0.25713 20.16732,-0.44315 30.78912,-2.7663 8.99677,-1.96773 16.18557,-3.8346 21.71374,-8.74341 5.57723,-4.95236 6.77826,-6.73617 6.77826,-13.18238 0,-9.36235 -4.4544,-14.33039 -13.89667,-19.7406 -10.40795,-5.79391 -17.4144,-7.67218 -39.0887,-7.67218 h -20.44036 c -4.18464,0 -7.2963,0.518 -9.33497,1.554 -1.98502,1.036 -3.4872,2.95452 -4.50654,5.75554 h -5.2308 l -0.14219,-39.05623 h 5.2308 c 1.01933,2.91614 1.99593,3.6609 3.98096,4.73527 1.98501,1.036 5.10002,1.72257 9.33497,1.554 l 18.13935,-0.72201 c 9.59563,-0.38194 17.04883,-0.66066 22.58733,-2.24371 13.05506,-3.73148 20.36074,-10.46575 19.90196,-18.20337 -0.82374,-13.89298 -24.72004,-21.76287 -46.19461,-21.49746 -24.625,0 -40.94324,5.72995 -59.63645,14.75156 -2.62881,1.49644 -4.61383,2.64755 -5.95507,3.45332 -1.28758,0.76741 -2.60198,1.78422 -3.94321,3.05044 -1.34123,1.26622 -2.01185,2.49407 -2.01185,3.68355 0,1.03599 0.99252,2.83939 2.97754,5.4102 z" />
    </g>
    <rect
       style="font-variation-settings:normal;opacity:1;fill:#84f73c;fill-opacity:1;fill-rule:evenodd;stroke:none;stroke-width:1.02897;stroke-linecap:butt;stroke-linejoin:miter;stroke-miterlimit:4;stroke-dasharray:none;stroke-dashoffset:0;stroke-opacity:1;stop-color:#000000;stop-opacity:1"
       id="rect285790"
       width="56.630676"
       height="1195.6665"
       x="-73.922012"
       y="-17.675571"
       transform="matrix(1,0,-0.31989659,0.94745246,0,0)" />
    <rect
       style="font-variation-settings:normal;opacity:1;fill:#84f73c;fill-opacity:1;fill-rule:evenodd;stroke:none;stroke-width:1.02897;stroke-linecap:butt;stroke-linejoin:miter;stroke-miterlimit:4;stroke-dasharray:none;stroke-dashoffset:0;stroke-opacity:1;stop-color:#000000;stop-opacity:1"
       id="rect285792"
       width="56.630676"
       height="1195.6665"
       x="41.246101"
       y="-17.675571"
       transform="matrix(1,0,-0.31989659,0.94745246,0,0)" />
    <rect
       style="font-variation-settings:normal;opacity:1;fill:#84f73c;fill-opacity:1;fill-rule:evenodd;stroke:none;stroke-width:1.02897;stroke-linecap:butt;stroke-linejoin:miter;stroke-miterlimit:4;stroke-dasharray:none;stroke-dashoffset:0;stroke-opacity:1;stop-color:#000000;stop-opacity:1"
       id="rect285794"
       width="56.630676"
       height="1195.6665"
       x="156.41423"
       y="-17.675571"
       transform="matrix(1,0,-0.31989659,0.94745246,0,0)" />
    <rect
       style="font-variation-settings:normal;opacity:1;fill:#84f73c;fill-opacity:1;fill-rule:evenodd;stroke:none;stroke-width:1.02897;stroke-linecap:butt;stroke-linejoin:miter;stroke-miterlimit:4;stroke-dasharray:none;stroke-dashoffset:0;stroke-opacity:1;stop-color:#000000;stop-opacity:1"
       id="rect285796"
       width="56.630676"
       height="1195.6665"
       x="271.58234"
       y="-17.675571"
       transform="matrix(1,0,-0.31989659,0.94745246,0,0)" />
    <rect
       style="font-variation-settings:normal;opacity:1;fill:#84f73c;fill-opacity:1;fill-rule:evenodd;stroke:none;stroke-width:1.02897;stroke-linecap:butt;stroke-linejoin:miter;stroke-miterlimit:4;stroke-dasharray:none;stroke-dashoffset:0;stroke-opacity:1;stop-color:#000000;stop-opacity:1"
       id="rect285798"
       width="56.630676"
       height="1195.6665"
       x="386.75043"
       y="-17.675571"
       transform="matrix(1,0,-0.31989659,0.94745246,0,0)" />
    <rect
       style="font-variation-settings:normal;opacity:1;fill:#84f73c;fill-opacity:1;fill-rule:evenodd;stroke:none;stroke-width:1.02897;stroke-linecap:butt;stroke-linejoin:miter;stroke-miterlimit:4;stroke-dasharray:none;stroke-dashoffset:0;stroke-opacity:1;stop-color:#000000;stop-opacity:1"
       id="rect285800"
       width="56.630676"
       height="1195.6665"
       x="-189.09013"
       y="-17.675571"
       transform="matrix(1,0,-0.31989659,0.94745246,0,0)" />
    <text
       xml:space="preserve"
       style="font-size:15.4953px;line-height:1;font-family:'TeX Gyre Termes Math';-inkscape-font-specification:'TeX Gyre Termes Math';letter-spacing:0px;word-spacing:0px;fill:#ffffff;stroke:none;stroke-width:0.999997"
       x="-508.0192"
       y="768.84137"
       id="text300472"
       transform="rotate(-90)"><tspan
         sodipodi:role="line"
         x="-508.0192"
         y="768.84137"
         style="font-style:normal;font-variant:normal;font-weight:300;font-stretch:normal;font-family:Kanit;-inkscape-font-specification:'Kanit Light';text-align:center;text-anchor:middle;fill:#000000;stroke:none;stroke-width:0.999997"
         id="tspan300470">NVidia Sega 32esque presented by walkingsep, tokkot, ix exclusively for SIGBOVIK. Availability may vary in your market. ix@tchow.com.</tspan></text>
    <g
       id="g311266"
       transform="translate(-7.1644224,12.272406)">
      <text
         xml:space="preserve"
         style="font-size:52.3406px;line-height:0.55;font-family:'TeX Gyre Termes Math';-inkscape-font-specification:'TeX Gyre Termes Math';letter-spacing:0px;word-spacing:0px;fill:#000000;fill-opacity:1;stroke-width:1"
         x="267.83926"
         y="978.7608"
         id="text311242"><tspan
           sodipodi:role="line"
           id="tspan311240"
           x="267.83926"
           y="978.7608"
           style="font-style:normal;font-variant:normal;font-weight:normal;font-stretch:normal;font-family:Copperplate;-inkscape-font-specification:Copperplate;fill:#000000;fill-opacity:1;stroke-width:1">It's ON-ish</tspan></text>
      <text
         xml:space="preserve"
         style="font-size:52.3406px;line-height:0.55;font-family:'TeX Gyre Termes Math';-inkscape-font-specification:'TeX Gyre Termes Math';letter-spacing:0px;word-spacing:0px;fill:#e93333;fill-opacity:1;stroke-width:1"
         x="268.71265"
         y="977.35358"
         id="text306354"><tspan
           sodipodi:role="line"
           id="tspan306352"
           x="268.71265"
           y="977.35358"
           style="font-style:normal;font-variant:normal;font-weight:normal;font-stretch:normal;font-family:Copperplate;-inkscape-font-specification:Copperplate;fill:#e93333;fill-opacity:1;stroke-width:1">It's ON-ish</tspan></text>
    </g>
    <text
       xml:space="preserve"
       style="font-style:normal;font-variant:normal;font-weight:normal;font-stretch:normal;font-size:122.415px;line-height:1.3;font-family:'Six Caps';-inkscape-font-specification:'Six Caps';letter-spacing:0px;word-spacing:0px;mix-blend-mode:normal;stroke-width:0.999996;filter:url(#filter26637);fill:#000000;fill-opacity:0.47223011"
       x="410"
       y="364.95706"
       id="text26635"><tspan
         sodipodi:role="line"
         id="tspan26629"
         x="410"
         y="364.95706"
         style="font-weight:normal;text-align:center;text-anchor:middle;stroke-width:0.999996;fill:#000000;fill-opacity:0.47223011">JENSEN HUANG'S</tspan><tspan
         sodipodi:role="line"
         x="410"
         y="524.09656"
         id="tspan26631"
         style="font-weight:normal;text-align:center;text-anchor:middle;stroke-width:0.999996;fill:#000000;fill-opacity:0.47223011">ABOUT TO MAKE</tspan><tspan
         sodipodi:role="line"
         x="410"
         y="683.23602"
         id="tspan26633"
         style="font-weight:normal;text-align:center;text-anchor:middle;stroke-width:0.999996;fill:#000000;fill-opacity:0.47223011">YOU HIS CUSTOMER.</tspan></text>
    <text
       xml:space="preserve"
       style="font-style:normal;font-variant:normal;font-weight:normal;font-stretch:normal;font-size:122.415px;line-height:1.3;font-family:'Six Caps';-inkscape-font-specification:'Six Caps';letter-spacing:0px;word-spacing:0px;stroke-width:0.999996"
       x="408"
       y="362.95706"
       id="text26073"><tspan
         sodipodi:role="line"
         id="tspan26067"
         x="408"
         y="362.95706"
         style="font-weight:normal;text-align:center;text-anchor:middle;stroke-width:0.999996">JENSEN HUANG'S</tspan><tspan
         sodipodi:role="line"
         x="408"
         y="522.09656"
         id="tspan26069"
         style="font-weight:normal;text-align:center;text-anchor:middle;stroke-width:0.999996">ABOUT TO MAKE</tspan><tspan
         sodipodi:role="line"
         x="408"
         y="681.23602"
         id="tspan26071"
         style="font-weight:normal;text-align:center;text-anchor:middle;stroke-width:0.999996">YOU HIS CUSTOMER.</tspan></text>
    <image
       width="924"
       height="520"
       preserveAspectRatio="none"
       style="stroke-width:3.70913;image-rendering:optimizeQuality"
       xlink:href="nvidia-logo.png"
       id="image23157"
       x="24.636572"
       y="530.04968"
       clip-path="url(#clipPath23375)"
       transform="matrix(0.26960541,0,0,0.26960541,530.48824,737.20957)" />
    <g
       id="g23481"
       transform="matrix(0.58293827,0,0,0.58293827,50.979108,928.25141)"
       style="stroke-width:1.71545">
      <path
         d="m 147.808,90.893999 c 5.508,5.349 13.019,8.656 21.303,8.656 l 130.889,0.015 -28.268,-84.332 C 267.871,6.2739988 258.813,-1.2207031e-6 247.934,-1.2207031e-6 237.101,-1.2207031e-6 227.906,6.4789988 224.189,15.400999 l -9.423,27.471 -0.037,-41.4530002 -45.709,-0.023 c -8.262,0 -15.689,3.224 -21.159,8.557 l 0.016,-8.52 h -46.801 c -8.717,0 -16.645,3.717 -22.19,9.5590002 V 1.3959988 l -44.11,0.038 C 15.734,1.4179988 0.114,16.302999 0.091,35.982999 c 0,9.111 3.982,17.374 9.854,23.496 L 0,59.462999 v 40.087 l 44.442,-0.008 c 12.487,-0.015 24.861,-7.549 29.162,-16.576 l 0.129,-0.371 c 4.969,10.036 15.339,16.955 27.341,16.955 l 46.733,-0.008 v -8.648"
         style="fill:#ffffff;stroke-width:1.71545"
         id="path23439" />
      <path
         d="m 6.866,92.690999 37.477,-0.038 c 15.333,0 27.759,-12.388 27.759,-27.652 0,-15.294 -12.426,-27.683 -27.759,-27.683 l -9.733,0.053 c -0.767,0 -1.389,-0.629 -1.389,-1.403 0,-0.774 0.622,-1.404 1.389,-1.404 l 37.409,0.008 0.015,-11.736 H 34.602 c -7.237,0 -13.125,5.879 -13.125,13.102 0,7.23 5.887,13.086 13.125,13.086 l 9.779,0.129 c 8.785,0 15.894,7.085 15.894,15.826 0,8.747 -7.108,15.848 -15.894,15.848 h -37.5 l -0.015,11.864"
         style="fill:#0060a8;stroke-width:1.71545"
         id="path23441" />
      <path
         d="m 6.881,78.071999 h 37.5 c 7.26,0 13.132,-5.856 13.132,-13.094 0,-7.23 -5.872,-13.079 -13.132,-13.079 l -9.779,-0.106 c -8.77,0 -15.886,-7.093 -15.886,-15.856 0,-8.739 7.116,-15.833 15.886,-15.833 l 37.432,-0.008 L 72.019,8.3149988 H 34.61 c -15.317,0 -27.759,12.3740002 -27.759,27.6530002 0,15.279 12.442,27.66 27.759,27.66 l 9.68,0.015 c 0.736,0 1.358,0.6 1.358,1.358 0,0.744 -0.622,1.343 -1.358,1.343 l -37.424,0.03 0.015,11.698"
         style="fill:#0060a8;stroke-width:1.71545"
         id="path23443" />
      <path
         d="m 101.158,80.901999 c -6.502,0 -11.828,-5.182 -11.828,-11.798 v -37.438 c 0,-6.365 5.326,-11.6 11.828,-11.6 l 40.003,0.007 V 8.3149988 h -40.003 c -13.018,0 -23.563,10.5070002 -23.563,23.4800002 v 37.31 c 0,12.974 10.545,23.496 23.563,23.496 l 39.836,0.016 -0.008,-11.729 -39.828,0.014"
         style="fill:#0060a8;stroke-width:1.71545"
         id="path23445" />
      <path
         d="m 92.198,31.794999 c 0,-4.961 3.991,-8.982 8.96,-8.982 h 40.003 v 11.774 h -34.465 c -2.761,0 -2.799,2.739 -2.799,2.739 h 28.753 v 11.721 H 92.184 l 0.014,-17.252"
         style="fill:#0060a8;stroke-width:1.71545"
         id="path23447" />
      <path
         d="m 101.158,78.049999 c -4.954,0 -8.975,-3.998 -8.975,-8.945 v -17.267 h 40.466 v 11.745 h -28.753 c 0.038,2.761 2.799,2.775 2.799,2.775 h 34.298 l -0.008,11.676 -39.827,0.016"
         style="fill:#0060a8;stroke-width:1.71545"
         id="path23449" />
      <path
         d="m 169.194,80.871999 c -6.479,0 -11.774,-5.28 -11.774,-11.768 v -37.31 c 0,-6.494 5.257,-11.729 11.743,-11.729 h 38.745 V 8.3149988 h -38.835 c -13.012,0 -23.557,10.5070002 -23.557,23.4800002 v 37.31 c 0,12.974 10.636,23.496 23.647,23.496 l 38.745,0.016 v -55.291 h -33.297 v 11.721 h 21.53 v 31.825 h -26.947"
         style="fill:#0060a8;stroke-width:1.71545"
         id="path23451" />
      <path
         d="m 160.181,69.103999 c 0,4.971 4.021,9.014 8.982,9.014 h 24.201 v -26.295 H 174.64 v 11.76 h 6.949 l 0.022,2.761 h -6.918 c -1.51,0 -2.746,-1.251 -2.746,-2.761 l -0.062,-26.265 c 0,0 -0.008,-2.731 2.777,-2.799 h 33.259 l -0.015,-11.714 -38.745,0.008 c -4.961,0 -8.982,4.021 -8.982,8.982 v 37.309"
         style="fill:#0060a8;stroke-width:1.71545"
         id="path23453" />
      <path
         d="m 244.315,22.637999 c 0.522,-1.494 1.941,-2.571 3.618,-2.571 1.678,0 3.111,1.077 3.619,2.571 l 18.808,55.563 h -27.54 l 0.03,-13.071 h 9.203 l -4.143,-12.313 -13.496,39.79 h -13.883 l 23.784,-69.969"
         style="fill:#0060a8;stroke-width:1.71545"
         id="path23455" />
      <path
         d="m 274.152,80.871999 h -31.286 v 11.735 h 47.612 l -24.762,-73.262 c -2.17,-7.146 -9.323,-12.4030002 -17.791,-12.4030002 -8.481,0 -15.612,5.2340002 -17.798,12.3740002 l -24.989,73.292 h 12.465 l 24.262,-71.244 c 0.985,-2.359 3.308,-4.021 6.039,-4.021 2.716,0 5.052,1.662 6.046,4.006 l 20.202,59.523"
         style="fill:#0060a8;stroke-width:1.71545"
         id="path23457" />
      <path
         d="m 281.504,17.638999 c 2.216,0 4.302,-0.865 5.865,-2.42 1.562,-1.57 2.435,-3.641 2.435,-5.8560002 0,-2.2 -0.873,-4.264 -2.435,-5.834 -1.563,-1.547 -3.649,-2.412 -5.865,-2.412 -4.559,0 -8.284,3.695 -8.284,8.247 0,2.2150002 0.865,4.2860002 2.442,5.8560002 1.556,1.554 3.634,2.419 5.842,2.419 m -7.115,-8.2770002 c 0,-1.889 0.728,-3.679 2.085,-5.022 1.351,-1.343 3.141,-2.071 5.03,-2.071 1.912,0 3.702,0.729 5.053,2.071 1.343,1.343 2.087,3.133 2.087,5.022 0,3.9220002 -3.202,7.1080002 -7.14,7.1080002 -1.89,0 -3.68,-0.736 -5.03,-2.079 -1.358,-1.342 -2.085,-3.125 -2.085,-5.0290002 z"
         style="fill:#231f20;stroke-width:1.71545"
         id="path23459" />
      <path
         d="m 279.38,10.059999 v 3.899 h -1.199 V 4.7949988 h 3.406 c 1.283,0.015 2.034,0.015 2.747,0.553 0.69,0.509 0.979,1.275 0.979,2.125 0,2.14 -1.744,2.42 -2.186,2.511 l 2.58,3.9750002 h -1.449 l -2.511,-3.899 h -2.367 m 0,-1.0090002 h 2.435 c 0.388,0 0.752,0 1.116,-0.091 0.85,-0.205 1.153,-0.812 1.153,-1.479 0,-0.243 -0.023,-0.857 -0.547,-1.282 -0.479,-0.402 -1.085,-0.387 -1.79,-0.387 h -2.367 z"
         style="fill:#231f20;stroke-width:1.71545"
         id="path23461" />
    </g>
    <path
       id="rect26416"
       style="mix-blend-mode:normal;fill:#ffffff;fill-opacity:1;fill-rule:evenodd;stroke:none;stroke-width:1.00157;filter:url(#filter26607);stop-color:#000000"
       d="M 133.92924,228.52612 V 707.84643 H 663.22417 V 228.52612 Z m 420.14063,29.79102 h 9.50391 l -2.51172,21.45898 h -5.14063 z m -233.71289,1.07617 c 2.39091,0 4.32247,0.37764 5.79687,1.13476 1.51425,0.71728 2.69052,1.61354 3.52735,2.68946 0.83682,1.03606 1.39489,2.17289 1.67383,3.4082 0.31878,1.19546 0.47851,2.2702 0.47851,3.22656 v 26.7793 h -7.65039 v -26.7793 c 0,-0.95636 -0.12028,-1.73234 -0.35937,-2.33008 -0.19925,-0.63758 -0.47926,-1.11676 -0.8379,-1.43554 -0.35863,-0.35864 -0.77571,-0.59726 -1.2539,-0.7168 -0.43833,-0.1594 -0.89682,-0.23828 -1.375,-0.23828 -0.47819,0 -0.95737,0.0789 -1.43555,0.23828 -0.43834,0.11954 -0.83668,0.35816 -1.19531,0.7168 -0.35864,0.31878 -0.65739,0.79796 -0.89648,1.43554 -0.19925,0.59774 -0.29883,1.37372 -0.29883,2.33008 v 11.65625 c 0,4.5029 0.3796,8.26838 1.13672,11.29688 0.75712,3.02849 1.69283,5.67784 2.80859,7.94922 1.15561,2.23152 2.39202,4.26462 3.70703,6.09765 1.315,1.83304 2.52877,3.82474 3.64453,5.97656 1.15561,2.11198 2.11202,4.58286 2.86914,7.41211 0.75712,2.78941 1.13672,6.27683 1.13672,10.46094 v 23.31055 c 0,0.47818 -0.0601,1.3557 -0.17969,2.63086 -0.11954,1.2353 -0.53858,2.51116 -1.25586,3.82617 -0.71727,1.31501 -1.85215,2.47058 -3.40625,3.4668 -1.55409,1.03606 -3.76566,1.55273 -6.63476,1.55273 -2.86911,0 -5.08067,-0.51667 -6.63477,-1.55273 -1.5541,-0.99622 -2.69093,-2.15179 -3.4082,-3.4668 -0.71727,-1.31501 -1.13436,-2.59087 -1.25391,-3.82617 -0.11954,-1.27516 -0.17968,-2.15268 -0.17968,-2.63086 v -34.42774 h 7.65039 v 34.42774 c 0,0.47818 0.0207,1.05695 0.0605,1.73437 0.0399,0.63758 0.1789,1.25579 0.41797,1.85352 0.2391,0.59773 0.61869,1.1144 1.13672,1.55273 0.51803,0.39849 1.25457,0.59766 2.21094,0.59766 0.95637,0 1.6929,-0.19917 2.21094,-0.59766 0.51802,-0.43833 0.89761,-0.955 1.13672,-1.55273 0.23909,-0.59773 0.37812,-1.21594 0.41796,-1.85352 0.0399,-0.67742 0.0605,-1.25619 0.0605,-1.73437 v -15.59961 c 0,-4.22395 -0.21986,-7.85041 -0.6582,-10.87891 -0.43834,-3.02849 -1.0171,-5.6591 -1.73438,-7.89062 -0.71728,-2.27137 -1.5327,-4.24432 -2.44922,-5.91797 -0.91652,-1.67364 -1.85418,-3.2463 -2.81054,-4.7207 -0.95637,-1.4744 -1.89208,-2.94943 -2.8086,-4.42383 -0.91652,-1.4744 -1.7339,-3.1486 -2.45117,-5.02149 -0.71727,-1.87288 -1.29408,-4.02431 -1.73242,-6.45507 -0.43833,-2.47062 -0.6582,-5.41873 -0.6582,-8.84571 v -14.40625 c 0,-0.95636 0.13903,-2.0311 0.41796,-3.22656 0.31879,-1.23531 0.89755,-2.37214 1.73438,-3.4082 0.83682,-1.07592 1.9924,-1.97218 3.4668,-2.68946 1.51424,-0.75712 3.4665,-1.13476 5.85742,-1.13476 z m 215.0039,0 c 1.91275,0 3.52484,0.21791 4.83985,0.65625 1.315,0.39848 2.39169,0.93781 3.22851,1.61523 0.83682,0.67743 1.49448,1.43467 1.97266,2.27149 0.47819,0.79697 0.81639,1.59365 1.01563,2.39062 0.19924,0.75713 0.31952,1.45422 0.35937,2.0918 0.0399,0.63757 0.0605,1.1148 0.0605,1.43359 l -0.002,32.51758 h -7.65039 v -32.51758 c 0,-0.47818 -0.0187,-0.99485 -0.0586,-1.55273 -0.0399,-0.55788 -0.18085,-1.05581 -0.41992,-1.49414 -0.2391,-0.47819 -0.61674,-0.87848 -1.13477,-1.19727 -0.51803,-0.31879 -1.25457,-0.47656 -2.21094,-0.47656 -0.95636,0 -1.69485,0.15777 -2.21289,0.47656 -0.51803,0.31879 -0.89567,0.71908 -1.13476,1.19727 -0.23909,0.43833 -0.37812,0.93626 -0.41797,1.49414 -0.0399,0.55788 -0.0606,1.07455 -0.0606,1.55273 v 84.16016 c 0,0.47818 0.0207,1.05695 0.0606,1.73437 0.0399,0.63758 0.1789,1.25579 0.41797,1.85352 0.23909,0.59773 0.61673,1.1144 1.13476,1.55273 0.51804,0.39849 1.25653,0.59766 2.21289,0.59766 0.95637,0 1.69291,-0.19917 2.21094,-0.59766 0.51803,-0.43833 0.89567,-0.955 1.13477,-1.55273 0.23909,-0.59773 0.38007,-1.21594 0.41992,-1.85352 0.0399,-0.67742 0.0586,-1.25619 0.0586,-1.73437 v -38.25391 h -1.91211 v -5.73828 h 9.5625 v 43.99219 c 0,0.47818 -0.0582,1.3557 -0.17773,2.63086 -0.11954,1.2353 -0.53858,2.51116 -1.25586,3.82617 -0.71727,1.31501 -1.85215,2.47058 -3.40625,3.4668 -1.55409,1.03606 -3.76566,1.55273 -6.63477,1.55273 -2.86909,0 -5.08067,-0.51667 -6.63476,-1.55273 -1.5541,-0.99622 -2.69093,-2.15179 -3.4082,-3.4668 -0.71728,-1.31501 -1.13632,-2.59087 -1.25586,-3.82617 -0.11955,-1.27516 -0.17774,-2.15268 -0.17774,-2.63086 v -84.16016 c 0,-0.31879 0.0187,-0.79602 0.0586,-1.43359 0.0399,-0.63758 0.16014,-1.33467 0.35937,-2.0918 0.19925,-0.79697 0.53745,-1.59365 1.01563,-2.39062 0.47818,-0.83682 1.13583,-1.59406 1.97265,-2.27149 0.83682,-0.67742 1.91351,-1.21675 3.22852,-1.61523 1.315,-0.43834 2.92906,-0.65625 4.84179,-0.65625 z m 45.00782,0 c 2.39091,0 4.32443,0.37764 5.79883,1.13476 1.51424,0.71728 2.68856,1.61354 3.52539,2.68946 0.83682,1.03606 1.39488,2.17289 1.67382,3.4082 0.31879,1.19546 0.47852,2.2702 0.47852,3.22656 v 26.7793 h -7.65039 v -26.7793 c 0,-0.95636 -0.12029,-1.73234 -0.35938,-2.33008 -0.19924,-0.63758 -0.4773,-1.11676 -0.83593,-1.43554 -0.35864,-0.35864 -0.77768,-0.59726 -1.25586,-0.7168 -0.43834,-0.1594 -0.89682,-0.23828 -1.375,-0.23828 -0.47819,0 -0.95542,0.0789 -1.4336,0.23828 -0.43834,0.11954 -0.83668,0.35816 -1.19531,0.7168 -0.35864,0.31878 -0.65739,0.79796 -0.89648,1.43554 -0.19924,0.59774 -0.29883,1.37372 -0.29883,2.33008 v 11.65625 c 0,4.5029 0.37764,8.26838 1.13476,11.29688 0.75713,3.02849 1.69284,5.67784 2.8086,7.94922 1.15561,2.23152 2.39203,4.26462 3.70703,6.09765 1.31501,1.83304 2.53072,3.82474 3.64648,5.97656 1.15562,2.11198 2.11202,4.58286 2.86914,7.41211 0.75712,2.78941 1.13477,6.27683 1.13477,10.46094 v 23.31055 c 0,0.47818 -0.0601,1.3557 -0.17969,2.63086 -0.11954,1.2353 -0.53663,2.51116 -1.2539,3.82617 -0.71728,1.31501 -1.85411,2.47058 -3.40821,3.4668 -1.55409,1.03606 -3.76566,1.55273 -6.63476,1.55273 -2.86911,0 -5.08067,-0.51667 -6.63477,-1.55273 -1.5541,-0.99622 -2.68897,-2.15179 -3.40625,-3.4668 -0.71727,-1.31501 -1.13631,-2.59087 -1.25586,-3.82617 -0.11954,-1.27516 -0.17968,-2.15268 -0.17968,-2.63086 v -34.42774 h 7.65234 v 34.42774 c 0,0.47818 0.0187,1.05695 0.0586,1.73437 0.0399,0.63758 0.1789,1.25579 0.41797,1.85352 0.23909,0.59773 0.61869,1.1144 1.13672,1.55273 0.51803,0.39849 1.25457,0.59766 2.21094,0.59766 0.95636,0 1.69486,-0.19917 2.21289,-0.59766 0.51803,-0.43833 0.89567,-0.955 1.13476,-1.55273 0.2391,-0.59773 0.37813,-1.21594 0.41797,-1.85352 0.0399,-0.67742 0.0606,-1.25619 0.0606,-1.73437 v -15.59961 c 0,-4.22395 -0.21987,-7.85041 -0.6582,-10.87891 -0.43834,-3.02849 -1.01515,-5.6591 -1.73243,-7.89062 -0.71728,-2.27137 -1.53465,-4.24432 -2.45117,-5.91797 -0.91652,-1.67364 -1.85222,-3.2463 -2.80859,-4.7207 -0.95637,-1.4744 -1.89403,-2.94943 -2.81055,-4.42383 -0.91652,-1.4744 -1.7339,-3.1486 -2.45117,-5.02149 -0.71728,-1.87288 -1.29409,-4.02431 -1.73242,-6.45507 -0.43834,-2.47062 -0.65821,-5.41873 -0.6582,-8.84571 v -14.40625 c -10e-6,-0.95636 0.13902,-2.0311 0.41796,-3.22656 0.31879,-1.23531 0.89755,-2.37214 1.73438,-3.4082 0.83682,-1.07592 1.9924,-1.97218 3.4668,-2.68946 1.51424,-0.75712 3.4665,-1.13476 5.85742,-1.13476 z m -338.4336,0.89648 h 7.65039 v 93.72266 c -0.11954,2.15182 -0.59677,4.06464 -1.43359,5.73828 -0.35864,0.71728 -0.81712,1.43507 -1.375,2.15234 -0.55788,0.67743 -1.23623,1.27494 -2.0332,1.79297 -0.79698,0.55788 -1.75338,0.99762 -2.86914,1.31641 -1.07592,0.31879 -2.33107,0.47656 -3.76563,0.47656 -1.43454,0 -2.7104,-0.15777 -3.82617,-0.47656 -1.07591,-0.31879 -2.01162,-0.75853 -2.80859,-1.31641 -0.79697,-0.51803 -1.47337,-1.11554 -2.03125,-1.79297 -0.55788,-0.71727 -1.01637,-1.43506 -1.375,-2.15234 -0.83683,-1.67364 -1.31601,-3.58646 -1.43555,-5.73828 v -40.16602 h 7.65039 v 40.16602 c 0,0.47818 0.0207,1.05695 0.0605,1.73437 0.0399,0.63758 0.17889,1.25579 0.41797,1.85352 0.23908,0.59773 0.61868,1.1144 1.13671,1.55273 0.51804,0.39849 1.25458,0.59766 2.21094,0.59766 0.95637,0 1.69291,-0.19917 2.21094,-0.59766 0.51803,-0.43833 0.89762,-0.955 1.13672,-1.55273 0.23909,-0.59773 0.37812,-1.21594 0.41797,-1.85352 0.0399,-0.67742 0.0605,-1.25619 0.0605,-1.73437 z m 15.30078,0 h 17.21485 v 5.73828 h -9.5625 v 40.16602 h 7.65039 v 5.73828 h -7.65039 v 45.90625 h 9.5625 v 5.73828 h -17.21485 z m 22.95313,0 h 7.65039 l 9.56445,76.50977 v -76.50977 h 5.73829 V 363.5769 h -7.6504 l -9.56445,-76.50976 v 76.50976 h -5.73828 z m 57.38281,0 h 17.21485 v 5.73828 h -9.56446 v 40.16602 h 7.65039 v 5.73828 h -7.65039 v 45.90625 h 9.56446 v 5.73828 h -17.21485 z m 22.95313,0 h 7.65039 l 9.5625,76.50977 v -76.50977 h 5.73828 V 363.5769 h -7.65039 l -9.5625,-76.50976 v 76.50976 h -5.73828 z m 44.76953,0 h 7.65039 v 47.81836 h 7.65039 v -47.81836 h 7.65234 V 363.5769 h -7.65234 v -49.73047 h -7.65039 v 49.73047 h -7.65039 z m 30.60351,0 h 7.65039 v 93.72266 c 10e-6,0.47818 0.0207,1.05695 0.0605,1.73437 0.0399,0.63758 0.1789,1.25579 0.41797,1.85352 0.23909,0.59773 0.61869,1.1144 1.13672,1.55273 0.51803,0.39849 1.25457,0.59766 2.21094,0.59766 0.95636,0 1.6929,-0.19917 2.21093,-0.59766 0.51804,-0.43833 0.89763,-0.955 1.13672,-1.55273 0.2391,-0.59773 0.37813,-1.21594 0.41797,-1.85352 0.0399,-0.67742 0.0606,-1.25619 0.0606,-1.73437 v -93.72266 h 7.65039 v 93.72266 c 0,0.47818 -0.0601,1.3557 -0.17969,2.63086 -0.11954,1.2353 -0.53858,2.51116 -1.25586,3.82617 -0.71727,1.31501 -1.85215,2.47058 -3.40625,3.4668 -1.55409,1.03606 -3.76566,1.55273 -6.63476,1.55273 -2.8691,0 -5.08068,-0.51667 -6.63477,-1.55273 -1.5541,-0.99622 -2.69093,-2.15179 -3.4082,-3.4668 -0.71728,-1.31501 -1.13437,-2.59087 -1.25391,-3.82617 -0.11954,-1.27516 -0.17969,-2.15268 -0.17969,-2.63086 z m 34.42969,0 h 11.47656 l 5.73829,103.28711 h -7.65235 l -0.95508,-24.86523 h -5.67968 l -1.01563,24.86523 h -7.65039 z m 22.95313,0 h 7.65039 l 9.5625,76.50977 v -76.50977 h 5.73828 V 363.5769 h -7.65039 l -9.56445,-76.50976 v 76.50976 h -5.73633 z m -17.21485,3.82422 -1.91406,45.90625 -0.89648,22.95313 h 5.67968 l -0.95703,-22.95313 z M 307.08745,418.53198 c 1.91273,0 3.52679,0.21987 4.84179,0.6582 1.31501,0.39849 2.38975,0.93586 3.22657,1.61328 0.83682,0.67743 1.49447,1.43467 1.97265,2.27149 0.47819,0.79697 0.81834,1.59365 1.01758,2.39062 0.19925,0.75712 0.31758,1.45422 0.35742,2.0918 0.0399,0.63758 0.0605,1.11676 0.0605,1.43555 v 84.16015 c 0,0.47818 -0.0601,1.35376 -0.17969,2.62891 -0.11954,1.23531 -0.53858,2.51117 -1.25586,3.82617 -0.71727,1.31501 -1.85215,2.47058 -3.40625,3.4668 -1.5541,1.03606 -3.76566,1.55469 -6.63476,1.55469 -2.8691,0 -5.08067,-0.51863 -6.63477,-1.55469 -1.55409,-0.99622 -2.69092,-2.15179 -3.4082,-3.4668 -0.71727,-1.315 -1.13436,-2.59086 -1.25391,-3.82617 -0.11954,-1.27515 -0.17968,-2.15073 -0.17969,-2.62891 v -84.16015 c 0,-0.31879 0.0207,-0.79797 0.0605,-1.43555 0.0399,-0.63758 0.1582,-1.33468 0.35742,-2.0918 0.19925,-0.79697 0.53745,-1.59365 1.01563,-2.39062 0.47819,-0.83682 1.13584,-1.59406 1.97266,-2.27149 0.83681,-0.67742 1.9135,-1.21479 3.22851,-1.61328 1.31501,-0.43833 2.92906,-0.6582 4.8418,-0.6582 z m 128.92969,0 c 1.91272,0 3.52679,0.21987 4.84179,0.6582 1.31501,0.39849 2.3917,0.93586 3.22852,1.61328 0.83682,0.67743 1.49447,1.43467 1.97265,2.27149 0.47818,0.79697 0.81638,1.59365 1.01563,2.39062 0.19924,0.75712 0.31757,1.45422 0.35742,2.0918 0.0399,0.63758 0.0605,1.11676 0.0605,1.43555 v 84.16015 c 0,0.47818 -0.0601,1.35376 -0.17969,2.62891 -0.11955,1.23531 -0.53663,2.51117 -1.25391,3.82617 -0.71728,1.31501 -1.85411,2.47058 -3.4082,3.4668 -1.5541,1.03606 -3.76567,1.55469 -6.63476,1.55469 -2.86912,0 -5.08067,-0.51863 -6.63477,-1.55469 -1.55409,-0.99622 -2.68898,-2.15179 -3.40625,-3.4668 -0.71728,-1.315 -1.13631,-2.59086 -1.25586,-3.82617 -0.11955,-1.27515 -0.17969,-2.15073 -0.17969,-2.62891 v -84.16015 c 0,-0.31879 0.0207,-0.79797 0.0606,-1.43555 0.0399,-0.63758 0.15819,-1.33468 0.35742,-2.0918 0.19924,-0.79697 0.53939,-1.59365 1.01758,-2.39062 0.47818,-0.83682 1.13584,-1.59406 1.97266,-2.27149 0.83682,-0.67742 1.91155,-1.21479 3.22656,-1.61328 1.315,-0.43833 2.92906,-0.6582 4.8418,-0.6582 z m -193.9629,0.89648 h 11.47657 l 5.73828,103.28711 h -7.65039 l -0.95703,-24.86523 h -5.67774 l -1.01758,24.86523 h -7.65039 z m 22.95313,0 h 7.65039 c 2.39091,0 4.5236,0.0601 6.39648,0.17969 1.91274,0.0797 3.5268,0.41789 4.8418,1.01563 1.31501,0.59772 2.31086,1.55413 2.98828,2.86914 0.71728,1.27516 1.07617,3.10908 1.07617,5.5 v 32.51562 c 0,1.91274 -0.47918,3.38777 -1.43554,4.42383 -0.95637,1.03607 -2.39,1.81204 -4.30274,2.33008 1.91274,0.43833 3.34637,1.17682 4.30274,2.21289 0.95636,1.03607 1.43554,2.50914 1.43554,4.42187 v 38.25586 c 0,2.39092 -0.43974,4.24359 -1.3164,5.5586 -0.87668,1.27515 -2.03225,2.21086 -3.4668,2.80859 -1.43455,0.59773 -3.06736,0.95663 -4.90039,1.07617 -1.83304,0.0797 -3.70641,0.11914 -5.61914,0.11914 h -7.65039 z m 61.20703,0 h 7.65039 v 93.72461 c 0,0.47818 0.0207,1.05501 0.0605,1.73242 0.0399,0.63759 0.17889,1.25579 0.41797,1.85352 0.23909,0.59773 0.61869,1.11635 1.13672,1.55469 0.51803,0.39848 1.25457,0.59765 2.21093,0.59765 0.95637,0 1.69291,-0.19917 2.21094,-0.59765 0.51803,-0.43834 0.89763,-0.95696 1.13672,-1.55469 0.23909,-0.59773 0.37812,-1.21594 0.41797,-1.85352 0.0399,-0.67741 0.0606,-1.25424 0.0606,-1.73242 v -93.72461 h 7.65039 v 93.72461 c 0,0.47818 -0.0601,1.35376 -0.17969,2.62891 -0.11955,1.23531 -0.53859,2.51117 -1.25586,3.82617 -0.71727,1.31501 -1.85215,2.47058 -3.40625,3.4668 -1.55409,1.03606 -3.76566,1.55469 -6.63477,1.55469 -2.8691,0 -5.08067,-0.51863 -6.63476,-1.55469 -1.5541,-0.99622 -2.68898,-2.15179 -3.40625,-3.4668 -0.71728,-1.315 -1.13632,-2.59086 -1.25586,-3.82617 -0.11955,-1.27515 -0.17969,-2.15073 -0.17969,-2.62891 z m 28.69141,0 h 22.95312 v 5.73829 h -7.65234 v 97.54882 h -7.65039 v -97.54882 h -7.65039 z m 40.94336,0 h 22.95312 v 5.73829 h -7.65039 v 97.54882 h -7.65039 v -97.54882 h -7.65234 z m 75.375,0 h 7.65039 l 5.73828,70.77149 5.73828,-70.77149 h 7.65039 l 1.91406,103.28711 h -7.65234 v -70.76953 l -5.73828,65.03125 h -3.82422 l -5.73828,-65.03125 v 70.76953 h -7.65235 z m 40.16601,0 h 11.47656 l 5.73829,103.28711 h -7.65039 l -0.95704,-24.86523 h -5.67773 l -1.01563,24.86523 h -7.65039 z m 22.95313,0 h 7.65234 v 47.81836 l 7.65039,-47.81836 h 7.65039 l -7.65039,43.99414 -0.83789,5.73633 0.83789,5.73828 7.65039,47.81836 h -7.65039 l -7.65039,-51.64258 v 51.64258 h -7.65234 z m 28.6914,0 h 17.21485 v 5.73829 h -9.56446 v 40.16796 h 7.65235 v 5.73828 h -7.65235 v 45.9043 h 9.56446 v 5.73828 h -17.21485 z m -315.24218,3.82618 -1.91211,45.90429 -0.89649,22.95313 h 5.67774 l -0.95703,-22.95313 z m 269.33593,0 -1.91211,45.90429 -0.89648,22.95313 h 5.67773 l -0.95507,-22.95313 z m -210.04101,1.01562 c -0.95637,0 -1.69291,0.15973 -2.21094,0.47852 -0.51803,0.31879 -0.89763,0.71713 -1.13672,1.19531 -0.23909,0.43833 -0.37811,0.93625 -0.41797,1.49414 -0.0399,0.55788 -0.0605,1.07651 -0.0605,1.55469 v 84.16015 c 0,0.47818 0.0207,1.05501 0.0605,1.73242 0.0399,0.63759 0.1789,1.25579 0.41797,1.85352 0.23909,0.59773 0.61869,1.11635 1.13672,1.55469 0.51803,0.39848 1.25457,0.59765 2.21094,0.59765 0.95636,0 1.6929,-0.19917 2.21093,-0.59765 0.51805,-0.43834 0.89764,-0.95696 1.13672,-1.55469 0.2391,-0.59773 0.37813,-1.21594 0.41797,-1.85352 0.0399,-0.67741 0.0606,-1.25424 0.0606,-1.73242 v -84.16015 c 0,-0.47818 -0.0207,-0.99681 -0.0606,-1.55469 -0.0399,-0.55789 -0.17889,-1.05581 -0.41797,-1.49414 -0.23908,-0.47818 -0.61868,-0.87652 -1.13672,-1.19531 -0.51803,-0.31879 -1.25457,-0.47852 -2.21093,-0.47852 z m 128.92969,0 c -0.95637,0 -1.69291,0.15973 -2.21094,0.47852 -0.51804,0.31879 -0.89763,0.71713 -1.13672,1.19531 -0.23909,0.43833 -0.37812,0.93625 -0.41797,1.49414 -0.0399,0.55788 -0.0586,1.07651 -0.0586,1.55469 v 84.16015 c 0,0.47818 0.0187,1.05501 0.0586,1.73242 0.0399,0.63759 0.1789,1.25579 0.41797,1.85352 0.23909,0.59773 0.61868,1.11635 1.13672,1.55469 0.51803,0.39848 1.25457,0.59765 2.21094,0.59765 0.95635,0 1.6929,-0.19917 2.21093,-0.59765 0.51804,-0.43834 0.89763,-0.95696 1.13672,-1.55469 0.23909,-0.59773 0.37812,-1.21594 0.41797,-1.85352 0.0399,-0.67741 0.0606,-1.25424 0.0606,-1.73242 v -84.16015 c 0,-0.47818 -0.0207,-0.99681 -0.0606,-1.55469 -0.0399,-0.55789 -0.1789,-1.05581 -0.41797,-1.49414 -0.23909,-0.47818 -0.61868,-0.87652 -1.13672,-1.19531 -0.51803,-0.31879 -1.25457,-0.47852 -2.21093,-0.47852 z m -163.35938,0.89649 v 40.16796 h 5.73828 c 0.47819,0 0.83709,-0.0996 1.07617,-0.29882 0.27894,-0.2391 0.47811,-0.53786 0.59766,-0.89649 0.11955,-0.35864 0.17969,-0.75698 0.17969,-1.19531 0.0399,-0.47819 0.0586,-0.95737 0.0586,-1.43555 v -32.51562 c 0,-0.95637 -0.13902,-1.69486 -0.41797,-2.21289 -0.23908,-0.51804 -0.65812,-0.89568 -1.25586,-1.13477 -0.59772,-0.23909 -1.3944,-0.37812 -2.39062,-0.41797 -0.95637,-0.0399 -2.15139,-0.0605 -3.58594,-0.0605 z m 0,45.90624 v 45.9043 c 1.43455,0 2.62957,-0.0187 3.58594,-0.0586 0.99622,-0.0399 1.7929,-0.1789 2.39062,-0.41797 0.59774,-0.23909 1.01678,-0.61869 1.25586,-1.13672 0.27895,-0.51803 0.41797,-1.25457 0.41797,-2.21094 v -38.25585 c 0,-0.47818 -0.0187,-0.93471 -0.0586,-1.37304 0,-0.47819 -0.0601,-0.89723 -0.17969,-1.25586 -0.11955,-0.35864 -0.31872,-0.63865 -0.59766,-0.83789 -0.23908,-0.2391 -0.59798,-0.35743 -1.07617,-0.35743 z M 229.62065,577.6726 c 1.91274,0 3.5268,0.21792 4.8418,0.65625 1.315,0.39849 2.39169,0.93586 3.22851,1.61329 0.83682,0.67742 1.49447,1.43465 1.97266,2.27148 0.47819,0.79697 0.81638,1.5956 1.01562,2.39258 0.19924,0.75712 0.31953,1.45423 0.35938,2.09179 0.0399,0.63759 0.0586,1.11481 0.0586,1.4336 v 84.16016 c 0,0.47818 -0.0601,1.3557 -0.17968,2.63085 -0.11955,1.23531 -0.53664,2.50922 -1.25391,3.82422 -0.71727,1.31501 -1.8541,2.47059 -3.4082,3.4668 -1.5541,1.03607 -3.76566,1.55469 -6.63477,1.55469 -2.8691,0 -5.08067,-0.51862 -6.63477,-1.55469 -1.55409,-0.99621 -2.68897,-2.15179 -3.40624,-3.4668 -0.71728,-1.315 -1.13632,-2.58891 -1.25586,-3.82422 -0.11955,-1.27515 -0.17969,-2.15267 -0.17969,-2.63085 v -84.16016 c 0,-0.31879 0.0207,-0.79602 0.0606,-1.4336 0.0399,-0.63756 0.16014,-1.33467 0.35937,-2.09179 0.19924,-0.79698 0.53744,-1.59561 1.01563,-2.39258 0.47817,-0.83683 1.13582,-1.59406 1.97265,-2.27148 0.83682,-0.67743 1.91351,-1.2148 3.22852,-1.61329 1.315,-0.43833 2.92711,-0.65625 4.83984,-0.65625 z m 121.2793,0 c 2.39092,0 4.32443,0.37764 5.79883,1.13477 1.51424,0.71727 2.69052,1.61354 3.52734,2.68945 0.83683,1.03607 1.39293,2.1729 1.67187,3.40821 0.31879,1.19546 0.47852,2.27019 0.47852,3.22656 v 26.7793 h -7.65039 v -26.7793 c 0,-0.95637 -0.12029,-1.73235 -0.35938,-2.33008 -0.19924,-0.63757 -0.47729,-1.11675 -0.83593,-1.43555 -0.35864,-0.35863 -0.77768,-0.59725 -1.25586,-0.71679 -0.43834,-0.1594 -0.89682,-0.24024 -1.375,-0.24024 -0.47818,0 -0.95541,0.0808 -1.4336,0.24024 -0.43833,0.11954 -0.83667,0.35816 -1.19531,0.71679 -0.35863,0.3188 -0.65739,0.79798 -0.89648,1.43555 -0.19924,0.59773 -0.29883,1.37371 -0.29883,2.33008 v 11.65625 c 0,4.5029 0.37764,8.26838 1.13476,11.29687 0.75713,3.0285 1.69479,5.67785 2.81055,7.94922 1.15561,2.23153 2.39008,4.26463 3.70508,6.09766 1.31501,1.83304 2.53072,3.82473 3.64648,5.97656 1.15562,2.11197 2.11202,4.58286 2.86914,7.41211 0.75713,2.78941 1.13477,6.27683 1.13477,10.46094 v 23.31055 c 0,0.47818 -0.0582,1.3557 -0.17773,2.63085 -0.11955,1.23531 -0.53859,2.50922 -1.25586,3.82422 -0.71728,1.31501 -1.85411,2.47059 -3.40821,3.4668 -1.55409,1.03607 -3.76566,1.55469 -6.63476,1.55469 -2.8691,0 -5.08067,-0.51862 -6.63477,-1.55469 -1.5541,-0.99621 -2.68897,-2.15179 -3.40625,-3.4668 -0.71727,-1.315 -1.13631,-2.58891 -1.25586,-3.82422 -0.11954,-1.27515 -0.17969,-2.15267 -0.17969,-2.63085 v -34.42969 h 7.65235 v 34.42969 c 0,0.47817 0.0187,1.05694 0.0586,1.73437 0.0399,0.63757 0.18085,1.25383 0.41992,1.85156 0.2391,0.59773 0.61674,1.11636 1.13477,1.55469 0.51803,0.39849 1.25457,0.59766 2.21094,0.59766 0.95637,0 1.69486,-0.19917 2.21289,-0.59766 0.51803,-0.43833 0.89567,-0.95696 1.13476,-1.55469 0.2391,-0.59773 0.37813,-1.21399 0.41797,-1.85156 0.0399,-0.67743 0.0606,-1.25619 0.0606,-1.73437 v -15.59961 c 0,-4.22396 -0.21987,-7.85041 -0.6582,-10.87891 -0.43834,-3.02849 -1.01515,-5.6591 -1.73243,-7.89063 -0.71728,-2.27136 -1.53465,-4.24432 -2.45117,-5.91796 -0.91651,-1.67364 -1.85222,-3.24631 -2.80859,-4.72071 -0.95637,-1.4744 -1.89403,-2.94943 -2.81055,-4.42383 -0.91652,-1.4744 -1.73194,-3.14859 -2.44922,-5.02148 -0.71728,-1.87289 -1.29604,-4.02431 -1.73437,-6.45508 -0.43834,-2.47061 -0.65821,-5.41872 -0.65821,-8.8457 v -14.40625 c 10e-6,-0.95637 0.14099,-2.0311 0.41993,-3.22656 0.31878,-1.23531 0.8956,-2.37214 1.73242,-3.40821 0.83683,-1.07591 1.9924,-1.97218 3.4668,-2.68945 1.51424,-0.75713 3.4665,-1.13477 5.85742,-1.13477 z m 42.85742,0 c 1.4744,0 2.88929,0.21792 4.24414,0.65625 1.3947,0.43834 2.63112,1.09599 3.70703,1.97266 1.07591,0.87667 1.93273,1.97211 2.57031,3.28711 0.63758,1.31501 0.95508,2.82948 0.95508,4.54297 v 32.51758 h -7.65039 v -32.51758 c 0,-0.95637 -0.12028,-1.73235 -0.35937,-2.33008 -0.19925,-0.63757 -0.47731,-1.11675 -0.83594,-1.43555 -0.35864,-0.35863 -0.77767,-0.59725 -1.25586,-0.71679 -0.43833,-0.1594 -0.89682,-0.24024 -1.375,-0.24024 -0.47819,0 -0.95541,0.0808 -1.43359,0.24024 -0.43834,0.11954 -0.83668,0.35816 -1.19532,0.71679 -0.35864,0.3188 -0.65739,0.79798 -0.89648,1.43555 -0.19924,0.59773 -0.29883,1.37371 -0.29883,2.33008 v 84.16016 c 0,0.47817 0.0187,1.05694 0.0586,1.73437 0.0399,0.63757 0.1789,1.25383 0.41797,1.85156 0.2391,0.59773 0.61869,1.11636 1.13672,1.55469 0.51804,0.39849 1.25457,0.59766 2.21094,0.59766 0.95637,0 1.69486,-0.19917 2.21289,-0.59766 0.51803,-0.43833 0.89567,-0.95696 1.13477,-1.55469 0.23909,-0.59773 0.37812,-1.21399 0.41796,-1.85156 0.0399,-0.67743 0.0606,-1.25619 0.0606,-1.73437 v -40.16602 h 7.65039 v 40.16602 c 0,0.47818 -0.0601,1.3557 -0.17969,2.63085 -0.11954,1.23531 -0.53662,2.50922 -1.2539,3.82422 -0.71728,1.31501 -1.8541,2.47059 -3.4082,3.4668 -1.55411,1.03607 -3.76567,1.55469 -6.63477,1.55469 -2.86911,0 -5.08067,-0.51862 -6.63477,-1.55469 -1.5541,-0.99621 -2.68897,-2.15179 -3.40625,-3.4668 -0.71727,-1.315 -1.13631,-2.58891 -1.25586,-3.82422 -0.11954,-1.27515 -0.17968,-2.15267 -0.17968,-2.63085 v -84.16016 c 0,-1.83304 0.34015,-3.40765 1.01757,-4.72266 0.67744,-1.35485 1.553,-2.45029 2.62891,-3.28711 1.11576,-0.83682 2.35218,-1.45307 3.70703,-1.85156 1.35486,-0.39849 2.72834,-0.59766 4.12305,-0.59766 z m 59.29492,0 c 2.39091,0 4.32443,0.37764 5.79883,1.13477 1.51425,0.71727 2.68857,1.61354 3.52539,2.68945 0.83682,1.03607 1.39489,2.1729 1.67383,3.40821 0.31878,1.19546 0.47851,2.27019 0.47851,3.22656 v 26.7793 h -7.65039 v -26.7793 c 0,-0.95637 -0.12028,-1.73235 -0.35937,-2.33008 -0.19925,-0.63757 -0.47731,-1.11675 -0.83594,-1.43555 -0.35864,-0.35863 -0.77767,-0.59725 -1.25586,-0.71679 -0.43833,-0.1594 -0.89682,-0.24024 -1.375,-0.24024 -0.47819,0 -0.95541,0.0808 -1.43359,0.24024 -0.43834,0.11954 -0.83668,0.35816 -1.19532,0.71679 -0.35863,0.3188 -0.65739,0.79798 -0.89648,1.43555 -0.19924,0.59773 -0.29883,1.37371 -0.29883,2.33008 v 11.65625 c 0,4.5029 0.37765,8.26838 1.13477,11.29687 0.75712,3.0285 1.69283,5.67785 2.80859,7.94922 1.15562,2.23153 2.39203,4.26463 3.70703,6.09766 1.315,1.83304 2.53072,3.82473 3.64649,5.97656 1.1556,2.11197 2.11201,4.58286 2.86914,7.41211 0.75712,2.78941 1.13476,6.27683 1.13476,10.46094 v 23.31055 c 0,0.47818 -0.0601,1.3557 -0.17968,2.63085 -0.11954,1.23531 -0.53663,2.50922 -1.25391,3.82422 -0.71727,1.31501 -1.8541,2.47059 -3.4082,3.4668 -1.5541,1.03607 -3.76567,1.55469 -6.63477,1.55469 -2.86911,0 -5.08067,-0.51862 -6.63476,-1.55469 -1.5541,-0.99621 -2.68898,-2.15179 -3.40625,-3.4668 -0.71728,-1.315 -1.13632,-2.58891 -1.25586,-3.82422 -0.11955,-1.27515 -0.17969,-2.15267 -0.17969,-2.63085 v -34.42969 h 7.65234 v 34.42969 c 0,0.47817 0.0187,1.05694 0.0586,1.73437 0.0399,0.63757 0.17888,1.25383 0.41797,1.85156 0.23908,0.59773 0.61868,1.11636 1.13671,1.55469 0.51804,0.39849 1.25457,0.59766 2.21094,0.59766 0.95637,0 1.69486,-0.19917 2.21289,-0.59766 0.51803,-0.43833 0.89567,-0.95696 1.13477,-1.55469 0.23909,-0.59773 0.37812,-1.21399 0.41797,-1.85156 0.0399,-0.67743 0.0605,-1.25619 0.0605,-1.73437 v -15.59961 c 0,-4.22396 -0.21986,-7.85041 -0.6582,-10.87891 -0.43833,-3.02849 -1.01515,-5.6591 -1.73242,-7.89063 -0.71728,-2.27136 -1.53466,-4.24432 -2.45117,-5.91796 -0.91652,-1.67364 -1.85223,-3.24631 -2.8086,-4.72071 -0.95636,-1.4744 -1.89402,-2.94943 -2.81054,-4.42383 -0.91652,-1.4744 -1.7339,-3.14859 -2.45118,-5.02148 -0.71727,-1.87289 -1.29408,-4.02431 -1.73242,-6.45508 -0.43833,-2.47061 -0.6582,-5.41872 -0.6582,-8.8457 v -14.40625 c 0,-0.95637 0.14098,-2.0311 0.41992,-3.22656 0.31879,-1.23531 0.8956,-2.37214 1.73242,-3.40821 0.83682,-1.07591 1.9924,-1.97218 3.4668,-2.68945 1.51425,-0.75713 3.4665,-1.13477 5.85742,-1.13477 z m 55.4707,0 c 1.91274,0 3.52485,0.21792 4.83985,0.65625 1.315,0.39849 2.39169,0.93586 3.22851,1.61329 0.83683,0.67742 1.49448,1.43465 1.97266,2.27148 0.47819,0.79697 0.81637,1.5956 1.01563,2.39258 0.19923,0.75712 0.31952,1.45423 0.35937,2.09179 0.0399,0.63759 0.0586,1.11481 0.0586,1.4336 v 84.16016 c 0,0.47818 -0.0582,1.3557 -0.17773,2.63085 -0.11955,1.23531 -0.53859,2.50922 -1.25586,3.82422 -0.71727,1.31501 -1.85215,2.47059 -3.40625,3.4668 -1.55409,1.03607 -3.76762,1.55469 -6.63672,1.55469 -2.86911,0 -5.08067,-0.51862 -6.63476,-1.55469 -1.5541,-0.99621 -2.68898,-2.15179 -3.40625,-3.4668 -0.71728,-1.315 -1.13632,-2.58891 -1.25586,-3.82422 -0.11955,-1.27515 -0.17774,-2.15267 -0.17774,-2.63085 v -84.16016 c 0,-0.31879 0.0187,-0.79602 0.0586,-1.4336 0.0399,-0.63756 0.16014,-1.33467 0.35937,-2.09179 0.19924,-0.79698 0.53744,-1.59561 1.01563,-2.39258 0.47818,-0.83683 1.13583,-1.59406 1.97265,-2.27148 0.83682,-0.67743 1.91351,-1.2148 3.22852,-1.61329 1.315,-0.43833 2.92905,-0.65625 4.84179,-0.65625 z m -319.06835,0.89649 h 7.65039 l 1.91211,26.77734 1.91406,26.7793 1.91211,-26.7793 1.91211,-26.77734 h 7.65234 l -7.65234,66.94531 v 36.3418 h -7.65039 v -36.3418 z m 59.29492,0 h 7.65039 v 93.72266 c 0,0.47817 0.0187,1.05694 0.0586,1.73437 0.0399,0.63757 0.18085,1.25383 0.41992,1.85156 0.2391,0.59773 0.61674,1.11636 1.13477,1.55469 0.51803,0.39849 1.25652,0.59766 2.21289,0.59766 0.95637,0 1.6929,-0.19917 2.21094,-0.59766 0.51802,-0.43833 0.89567,-0.95696 1.13476,-1.55469 0.2391,-0.59773 0.38008,-1.21399 0.41992,-1.85156 0.0399,-0.67743 0.0586,-1.25619 0.0586,-1.73437 v -93.72266 h 7.65039 v 93.72266 c 0,0.47818 -0.0582,1.3557 -0.17774,2.63085 -0.11954,1.23531 -0.53859,2.50922 -1.25585,3.82422 -0.71728,1.31501 -1.85215,2.47059 -3.40626,3.4668 -1.55408,1.03607 -3.76566,1.55469 -6.63476,1.55469 -2.86911,0 -5.08067,-0.51862 -6.63477,-1.55469 -1.5541,-0.99621 -2.69093,-2.15179 -3.4082,-3.4668 -0.71727,-1.315 -1.13631,-2.58891 -1.25586,-3.82422 -0.11955,-1.27515 -0.17773,-2.15267 -0.17773,-2.63085 z m 44.76953,0 h 7.65039 v 47.81836 h 7.65039 v -47.81836 h 7.65234 V 681.8562 h -7.65234 v -49.73047 h -7.65039 v 49.73047 h -7.65039 z m 31.56055,0 h 7.65039 V 681.8562 h -7.65039 z m 87.80664,0 h 7.65039 v 93.72266 c 0,0.47817 0.0187,1.05694 0.0586,1.73437 0.0399,0.63757 0.18085,1.25383 0.41992,1.85156 0.2391,0.59773 0.61673,1.11636 1.13477,1.55469 0.51803,0.39849 1.25457,0.59766 2.21093,0.59766 0.95637,0 1.69486,-0.19917 2.2129,-0.59766 0.51802,-0.43833 0.89567,-0.95696 1.13476,-1.55469 0.23909,-0.59773 0.37812,-1.21399 0.41797,-1.85156 0.0399,-0.67743 0.0606,-1.25619 0.0606,-1.73437 v -93.72266 h 7.65039 v 93.72266 c 0,0.47818 -0.0582,1.3557 -0.17774,2.63085 -0.11954,1.23531 -0.53858,2.50922 -1.25586,3.82422 -0.71727,1.31501 -1.8541,2.47059 -3.4082,3.4668 -1.55409,1.03607 -3.76566,1.55469 -6.63477,1.55469 -2.86909,0 -5.08067,-0.51862 -6.63476,-1.55469 -1.5541,-0.99621 -2.68898,-2.15179 -3.40625,-3.4668 -0.71727,-1.315 -1.13631,-2.58891 -1.25586,-3.82422 -0.11955,-1.27515 -0.17773,-2.15267 -0.17773,-2.63085 z m 55.46875,0 h 22.95312 v 5.73828 h -7.65234 v 97.54883 h -7.65039 v -97.54883 h -7.65039 z m 61.20703,0 h 7.65039 l 5.73828,70.76953 5.73828,-70.76953 h 7.65039 l 1.91406,103.28711 h -7.65039 v -70.77149 l -5.73828,65.03321 h -3.82617 l -5.73828,-65.03321 v 70.77149 h -7.65039 z m 36.34179,0 h 17.21485 v 5.73828 h -9.56446 v 40.16602 h 7.65235 v 5.73828 h -7.65235 v 45.90625 h 9.56446 v 5.73828 h -17.21485 z m 22.95313,0 h 7.65039 c 1.91273,0 3.78611,0.0582 5.61914,0.17773 1.83304,0.0797 3.46584,0.41985 4.90039,1.01758 1.43455,0.59773 2.59012,1.55414 3.4668,2.86914 0.87666,1.27516 1.3164,3.10713 1.3164,5.49805 v 32.51758 c 0,2.8691 -0.47918,4.86079 -1.43554,5.97656 -0.95637,1.11576 -2.39,1.67383 -4.30274,1.67383 0.95637,0 1.79249,0.21987 2.50977,0.6582 0.71727,0.43833 1.31478,1.01514 1.79297,1.73242 0.47818,0.71728 0.83708,1.53465 1.07617,2.45117 0.23909,0.91652 0.35937,1.85223 0.35937,2.8086 v 45.90625 h -7.65234 v -47.81836 c 0,-0.95637 -0.21792,-1.69291 -0.65625,-2.21094 -0.43833,-0.51803 -1.01711,-0.89762 -1.73437,-1.13672 -0.71728,-0.23909 -1.5327,-0.37812 -2.44922,-0.41797 -0.91652,-0.0399 -1.85418,-0.0605 -2.81055,-0.0605 v 51.64453 h -7.65039 z m -359.23633,4.83984 c -0.95637,0 -1.69291,0.15972 -2.21094,0.47852 -0.51803,0.31878 -0.89567,0.71712 -1.13476,1.19531 -0.2391,0.43833 -0.38008,0.93626 -0.41992,1.49414 -0.0399,0.55788 -0.0586,1.0765 -0.0586,1.55469 v 84.16016 c 0,0.47817 0.0187,1.05694 0.0586,1.73437 0.0399,0.63757 0.18084,1.25383 0.41992,1.85156 0.23909,0.59773 0.61673,1.11636 1.13476,1.55469 0.51803,0.39849 1.25457,0.59766 2.21094,0.59766 0.95637,0 1.69486,-0.19917 2.21289,-0.59766 0.51803,-0.43833 0.89567,-0.95696 1.13477,-1.55469 0.23909,-0.59773 0.37812,-1.21399 0.41797,-1.85156 0.0399,-0.67743 0.0605,-1.25619 0.0605,-1.73437 v -84.16016 c 0,-0.47819 -0.0207,-0.99681 -0.0605,-1.55469 -0.0399,-0.55788 -0.1789,-1.05581 -0.41797,-1.49414 -0.2391,-0.47819 -0.61674,-0.87653 -1.13477,-1.19531 -0.51803,-0.3188 -1.25652,-0.47852 -2.21289,-0.47852 z m 278.90234,0 c -0.95637,0 -1.69486,0.15972 -2.21289,0.47852 -0.51803,0.31878 -0.89567,0.71712 -1.13476,1.19531 -0.2391,0.43833 -0.38008,0.93626 -0.41992,1.49414 -0.0399,0.55788 -0.0586,1.0765 -0.0586,1.55469 v 84.16016 c 0,0.47817 0.0187,1.05694 0.0586,1.73437 0.0399,0.63757 0.18084,1.25383 0.41992,1.85156 0.23909,0.59773 0.61673,1.11636 1.13476,1.55469 0.51803,0.39849 1.25652,0.59766 2.21289,0.59766 0.95637,0 1.69292,-0.19917 2.21094,-0.59766 0.51804,-0.43833 0.89567,-0.95696 1.13477,-1.55469 0.23909,-0.59773 0.38007,-1.21399 0.41992,-1.85156 0.0399,-0.67743 0.0586,-1.25619 0.0586,-1.73437 v -84.16016 c 0,-0.47819 -0.0187,-0.99681 -0.0586,-1.55469 -0.0399,-0.55788 -0.18085,-1.05581 -0.41992,-1.49414 -0.2391,-0.47819 -0.61673,-0.87653 -1.13477,-1.19531 -0.51802,-0.3188 -1.25457,-0.47852 -2.21094,-0.47852 z m 87.98438,0.89844 v 42.08008 c 0.95637,0 1.89403,-0.0207 2.81055,-0.0606 0.91652,-0.0399 1.73194,-0.17889 2.44922,-0.41797 0.71727,-0.23909 1.29604,-0.61869 1.73437,-1.13672 0.43833,-0.51803 0.65625,-1.25457 0.65625,-2.21093 v -34.42969 c 0,-0.95637 -0.13903,-1.69291 -0.41797,-2.21094 -0.23909,-0.51803 -0.65618,-0.89762 -1.25391,-1.13672 -0.59771,-0.23909 -1.39635,-0.37812 -2.39257,-0.41797 -0.95637,-0.0399 -2.15139,-0.0586 -3.58594,-0.0586 z m 21.04101,87.98438 h 9.5625 v 9.56445 h -9.5625 z"
       clip-path="url(#clipPath26619)" />
  </g>
</svg>
